<svg width="73" height="73" viewBox="0 0 73 73" fill="none" xmlns="http://www.w3.org/2000/svg">
<g id="Frame" clip-path="url(#clip0_464_1762)">
<path id="Vector" fill-rule="evenodd" clip-rule="evenodd" d="M72.7308 32.0881C73.7404 40.3752 71.8786 48.758 67.4559 55.8387C63.0331 62.9193 56.3167 68.2698 48.4267 70.998C40.5366 73.7263 31.9498 73.6673 24.0979 70.8309C16.2461 67.9946 9.60387 62.5523 5.27881 55.4116C4.8081 54.6353 4.66504 53.7039 4.88108 52.8221C5.09713 51.9404 5.6546 51.1806 6.43084 50.7099C7.20709 50.2392 8.13853 50.0961 9.02027 50.3122C9.902 50.5282 10.6618 51.0857 11.1325 51.8619C13.4623 55.7091 16.6366 58.976 20.4153 61.4154C24.194 63.8548 28.478 65.4027 32.9432 65.9421C37.4084 66.4815 41.9378 65.9982 46.1886 64.5288C50.4395 63.0594 54.3004 60.6424 57.4793 57.4606C60.6582 54.2789 63.0718 50.4158 64.5374 46.1636C66.003 41.9114 66.4822 37.3816 65.9388 32.9169C65.3954 28.4522 63.8436 24.1695 61.4009 20.3931C58.9581 16.6166 55.6884 13.4452 51.8391 11.1188C51.0623 10.6493 50.5037 9.89044 50.2864 9.00914C50.0691 8.12783 50.2108 7.19629 50.6802 6.41944C51.1497 5.64259 51.9086 5.08406 52.7899 4.86673C53.6712 4.6494 54.6028 4.79106 55.3796 5.26056C60.1167 8.12393 64.1404 12.0272 67.1465 16.675C70.1525 21.3228 72.0621 26.5934 72.7308 32.0881ZM41.0625 4.5625C41.0625 5.77255 40.5818 6.93304 39.7262 7.78867C38.8705 8.64431 37.71 9.125 36.5 9.125C35.29 9.125 34.1295 8.64431 33.2738 7.78867C32.4182 6.93304 31.9375 5.77255 31.9375 4.5625C31.9375 3.35245 32.4182 2.19196 33.2738 1.33633C34.1295 0.480691 35.29 0 36.5 0C37.71 0 38.8705 0.480691 39.7262 1.33633C40.5818 2.19196 41.0625 3.35245 41.0625 4.5625ZM12.7932 22.8125C13.0976 22.2934 13.2962 21.7193 13.3777 21.1231C13.4592 20.527 13.422 19.9206 13.2682 19.3389C13.1144 18.7571 12.8471 18.2116 12.4816 17.7336C12.1161 17.2556 11.6596 16.8547 11.1386 16.5538C10.6175 16.253 10.042 16.0582 9.44534 15.9806C8.84865 15.903 8.24252 15.9443 7.66184 16.1019C7.08116 16.2596 6.5374 16.5305 6.06186 16.8992C5.58632 17.2679 5.1884 17.7269 4.891 18.25C4.29552 19.2974 4.13848 20.5377 4.45415 21.7005C4.76982 22.8632 5.53257 23.8538 6.57596 24.4563C7.61934 25.0587 8.85865 25.2239 10.0234 24.916C11.1882 24.608 12.1839 23.8519 12.7932 22.8125ZM4.5625 31.9375C5.77255 31.9375 6.93304 32.4182 7.78867 33.2738C8.64431 34.1295 9.125 35.29 9.125 36.5C9.125 37.71 8.64431 38.8705 7.78867 39.7262C6.93304 40.5818 5.77255 41.0625 4.5625 41.0625C3.35245 41.0625 2.19196 40.5818 1.33633 39.7262C0.480691 38.8705 0 37.71 0 36.5C0 35.29 0.480691 34.1295 1.33633 33.2738C2.19196 32.4182 3.35245 31.9375 4.5625 31.9375ZM22.8125 12.7932C23.3356 12.4959 23.7946 12.0979 24.1633 11.6224C24.532 11.1469 24.8029 10.6031 24.9606 10.0224C25.1182 9.44173 25.1595 8.8356 25.0819 8.23891C25.0043 7.64223 24.8095 7.06678 24.5087 6.54569C24.2078 6.02461 23.8069 5.56818 23.3289 5.20268C22.8509 4.83719 22.3054 4.56985 21.7236 4.41605C21.1419 4.26225 20.5355 4.22504 19.9394 4.30655C19.3432 4.38806 18.7691 4.58669 18.25 4.891C17.2106 5.50032 16.4545 6.49602 16.1465 7.66081C15.8386 8.8256 16.0038 10.0649 16.6062 11.1083C17.2087 12.1517 18.1993 12.9144 19.362 13.2301C20.5248 13.5458 21.7651 13.3887 22.8125 12.7932Z" fill="#26D0FE"/>
</g>
<defs>
<clipPath id="clip0_464_1762">
<rect width="73" height="73" fill="white"/>
</clipPath>
</defs>
</svg>
