<svg width="25" height="25" viewBox="0 0 25 25" fill="none" xmlns="http://www.w3.org/2000/svg">
<path d="M12.2349 5.95117C10.9924 5.95117 9.77773 6.31961 8.74462 7.00989C7.7115 7.70017 6.90628 8.68129 6.43079 9.82918C5.9553 10.9771 5.83089 12.2402 6.07329 13.4588C6.31569 14.6774 6.91402 15.7967 7.79262 16.6753C8.67121 17.5539 9.79061 18.1522 11.0093 18.3946C12.2279 18.637 13.4911 18.5125 14.639 18.0371C15.7869 17.5616 16.7681 16.7564 17.4584 15.7233C18.1487 14.6903 18.5172 13.4757 18.5172 12.2332C18.5172 11.4082 18.3547 10.5913 18.039 9.82916C17.7233 9.06698 17.2605 8.37445 16.6772 7.7911C16.0938 7.20776 15.4012 6.74503 14.639 6.42933C13.8768 6.11363 13.0599 5.95116 12.2349 5.95117ZM12.2349 16.3115C11.4282 16.3115 10.6397 16.0723 9.96898 15.6242C9.29827 15.1761 8.77552 14.5391 8.46683 13.7939C8.15814 13.0487 8.07738 12.2286 8.23475 11.4375C8.39213 10.6464 8.78057 9.91971 9.35096 9.34934C9.92136 8.77898 10.6481 8.39056 11.4392 8.2332C12.2304 8.07584 13.0504 8.15661 13.7957 8.4653C14.5409 8.77398 15.1779 9.29672 15.626 9.9674C16.0742 10.6381 16.3134 11.4266 16.3134 12.2332C16.3134 12.7688 16.208 13.2992 16.0031 13.794C15.7981 14.2888 15.4977 14.7385 15.119 15.1172C14.7402 15.4959 14.2906 15.7963 13.7957 16.0012C13.3009 16.2062 12.7705 16.3116 12.2349 16.3115Z" fill="#FCFCFC"/>
<path d="M24.395 7.19018C24.3749 6.17532 24.1828 5.17122 23.8267 4.22066C23.519 3.40451 23.0374 2.66502 22.4155 2.05345C21.8048 1.43091 21.0655 0.949294 20.2492 0.642287C19.2987 0.286011 18.2945 0.0938681 17.2796 0.0740648C15.9751 0.0146808 15.558 0 12.2355 0C8.91303 0 8.49567 0.0137755 7.19045 0.0740648C6.17555 0.0941194 5.17142 0.286255 4.22082 0.642287C3.40441 0.949574 2.66481 1.43114 2.05353 2.05345C1.43062 2.66422 0.948974 3.40394 0.642398 4.22066C0.286355 5.17123 0.0942131 6.17532 0.0741535 7.19018C0.0138495 8.4946 0 8.91167 0 12.234C0 15.5564 0.0138495 15.9734 0.074129 17.2778C0.0941921 18.2927 0.286343 19.2968 0.642398 20.2474C0.949063 21.0641 1.4307 21.8038 2.05353 22.4146C2.66511 23.0366 3.40463 23.518 4.22082 23.8257C5.17146 24.1816 6.17557 24.3738 7.19045 24.394C8.49567 24.4533 8.91201 24.4681 12.2345 24.4681C15.557 24.4681 15.9741 24.4542 17.2786 24.394C18.2935 24.3739 19.2976 24.1817 20.2482 23.8257C21.0611 23.5115 21.7993 23.0308 22.4155 22.4146C23.0318 21.7984 23.5124 21.0602 23.8267 20.2474C24.1832 19.2969 24.3753 18.2928 24.395 17.2778C24.4543 15.9725 24.4681 15.5564 24.4681 12.234C24.4681 8.91167 24.4543 8.4946 24.395 7.19018ZM22.194 17.1781C22.1846 17.9539 22.0422 18.7224 21.7731 19.4501C21.5695 19.9777 21.2576 20.4568 20.8576 20.8566C20.4577 21.2564 19.9784 21.568 19.4507 21.7714C18.7231 22.0411 17.9545 22.1835 17.1786 22.1922C15.889 22.2515 15.5017 22.2634 12.2344 22.2634C8.9672 22.2634 8.58094 22.2515 7.2917 22.1922C6.51581 22.1834 5.74724 22.041 5.01965 21.7714C4.48824 21.575 4.00744 21.2623 3.61239 20.8563C3.2057 20.4621 2.89293 19.9815 2.69725 19.4501C2.4275 18.7226 2.28513 17.954 2.27638 17.1781C2.21704 15.8886 2.20524 15.5012 2.20524 12.2341C2.20524 8.96701 2.21807 8.58076 2.27638 7.29011C2.28615 6.51437 2.42849 5.74601 2.69725 5.01824C2.89363 4.48685 3.2063 4.00606 3.61239 3.61104C4.00675 3.20413 4.48775 2.89134 5.01965 2.69593C5.74722 2.42623 6.5158 2.28387 7.2917 2.27508C8.5813 2.21576 8.96866 2.20394 12.2344 2.20394C15.5002 2.20394 15.888 2.21677 17.1786 2.27508C17.9544 2.28485 18.7229 2.42719 19.4507 2.69593C19.9786 2.89932 20.4579 3.21106 20.858 3.61105C21.258 4.01105 21.5697 4.49041 21.7731 5.01826C22.0428 5.74576 22.1852 6.51428 22.194 7.29012C22.2533 8.58081 22.2651 8.96709 22.2651 12.2341C22.2651 15.5012 22.2533 15.8875 22.194 17.1781Z" fill="#FCFCFC"/>
<path d="M18.7664 4.2373C18.3771 4.23738 18.0032 4.39207 17.728 4.66736C17.4528 4.94266 17.2982 5.316 17.2982 5.70527C17.2983 6.09454 17.4529 6.46785 17.7282 6.74309C18.0035 7.01833 18.3768 7.17296 18.7661 7.17296C19.1554 7.17296 19.5287 7.01833 19.804 6.74309C20.0793 6.46785 20.234 6.09454 20.234 5.70527C20.234 5.316 20.0794 4.94266 19.8042 4.66736C19.529 4.39207 19.1557 4.23738 18.7664 4.2373Z" fill="#FCFCFC"/>
</svg>
