<svg width="18" height="22" viewBox="0 0 18 22" fill="none" xmlns="http://www.w3.org/2000/svg">
<path d="M15.364 15.364L9 21.7279L2.63604 15.364C-0.87868 11.8492 -0.87868 6.15076 2.63604 2.63604C6.15076 -0.87868 11.8492 -0.87868 15.364 2.63604C18.8787 6.15076 18.8787 11.8492 15.364 15.364ZM9 13C11.2091 13 13 11.2091 13 9C13 6.79086 11.2091 5 9 5C6.79086 5 5 6.79086 5 9C5 11.2091 6.79086 13 9 13ZM9 11C7.8954 11 7 10.1046 7 9C7 7.89543 7.8954 7 9 7C10.1046 7 11 7.89543 11 9C11 10.1046 10.1046 11 9 11Z" fill="url(#paint0_linear_19_237)"/>
<defs>
<linearGradient id="paint0_linear_19_237" x1="9.00001" y1="0" x2="9.00001" y2="21.7279" gradientUnits="userSpaceOnUse">
<stop stop-color="#003049"/>
<stop offset="0.9999" stop-color="#005079"/>
</linearGradient>
</defs>
</svg>
