<svg width="25" height="25" viewBox="0 0 25 25" fill="none" xmlns="http://www.w3.org/2000/svg">
<path d="M18.1047 14.0585C18.0571 14.0356 16.2733 13.1572 15.9563 13.0431C15.8269 12.9967 15.6883 12.9513 15.5408 12.9513C15.3 12.9513 15.0976 13.0713 14.94 13.3071C14.7618 13.572 14.2224 14.2025 14.0557 14.3909C14.034 14.4157 14.0043 14.4454 13.9865 14.4454C13.9705 14.4454 13.6944 14.3318 13.6109 14.2955C11.6973 13.4643 10.2449 11.4654 10.0457 11.1284C10.0173 11.0799 10.0161 11.0579 10.0159 11.0579C10.0229 11.0322 10.0872 10.9677 10.1204 10.9344C10.2176 10.8383 10.3228 10.7116 10.4247 10.589C10.4729 10.5309 10.5212 10.4728 10.5686 10.418C10.7164 10.2461 10.7822 10.1126 10.8584 9.95801L10.8984 9.8777C11.0846 9.50774 10.9256 9.19553 10.8742 9.09472C10.832 9.01035 10.0788 7.19256 9.99872 7.00159C9.80615 6.54074 9.5517 6.32617 9.1981 6.32617C9.16529 6.32617 9.1981 6.32617 9.06051 6.33197C8.89297 6.33904 7.98058 6.45916 7.57717 6.71345C7.14938 6.98316 6.42566 7.84288 6.42566 9.35481C6.42566 10.7156 7.28919 12.0004 7.65995 12.489C7.66916 12.5013 7.68608 12.5264 7.71063 12.5623C9.1305 14.6359 10.9005 16.1726 12.6949 16.8894C14.4224 17.5794 15.2404 17.6592 15.7054 17.6592H15.7055C15.9009 17.6592 16.0574 17.6439 16.1953 17.6303L16.2829 17.6219C16.8797 17.569 18.1911 16.8895 18.4894 16.0605C18.7244 15.4076 18.7863 14.6942 18.63 14.4353C18.5229 14.2592 18.3384 14.1707 18.1047 14.0585Z" fill="#FCFCFC"/>
<path d="M12.4513 0C5.82456 0 0.433319 5.35073 0.433319 11.9276C0.433319 14.0548 1.0026 16.1371 2.08102 17.9595L0.0168843 24.0483C-0.0215656 24.1618 0.00703347 24.2874 0.0910036 24.3728C0.151618 24.4347 0.23384 24.4681 0.31781 24.4681C0.349984 24.4681 0.382396 24.4632 0.414014 24.4531L6.76301 22.4356C8.50041 23.3639 10.4641 23.8539 12.4514 23.8539C19.0775 23.854 24.4681 18.5038 24.4681 11.9276C24.4681 5.35073 19.0775 0 12.4513 0ZM12.4513 21.3694C10.5813 21.3694 8.77011 20.8294 7.21321 19.8078C7.16086 19.7734 7.10008 19.7558 7.03891 19.7558C7.00658 19.7558 6.97417 19.7607 6.94263 19.7707L3.76217 20.7817L4.78888 17.7526C4.82209 17.6546 4.80548 17.5465 4.74431 17.4629C3.55872 15.8429 2.932 13.9289 2.932 11.9276C2.932 6.72078 7.20232 2.48462 12.4512 2.48462C17.6995 2.48462 21.9693 6.72078 21.9693 11.9276C21.9694 17.1339 17.6996 21.3694 12.4513 21.3694Z" fill="#FCFCFC"/>
</svg>
