<svg width="47" height="43" viewBox="0 0 47 43" fill="none" xmlns="http://www.w3.org/2000/svg">
<path d="M23.5266 3.9043C25.5706 3.9043 27.2919 5.57178 27.2919 7.66958C27.2919 9.71359 25.5706 11.4349 23.5266 11.4349C21.4288 11.4349 19.7075 9.71359 19.7075 7.66958C19.7075 5.57178 21.4288 3.9043 23.5266 3.9043ZM23.5266 4.9263C21.9667 4.9263 20.7295 6.10968 20.7295 7.66958C20.7295 9.17569 21.9667 10.4129 23.5266 10.4129C25.0327 10.4129 26.2699 9.17569 26.2699 7.66958C26.2699 6.10968 25.0327 4.9263 23.5266 4.9263Z" fill="url(#paint0_linear_4_308)" stroke="url(#paint1_linear_4_308)"/>
<path d="M23.5269 1C29.5513 1 34.5 5.94866 34.5 12.0269C34.5 18.0513 29.5513 23 23.5269 23C17.4487 23 12.5 18.0513 12.5 12.0269C12.5 5.94866 17.4487 1 23.5269 1ZM23.5269 12.6186C27.1846 12.6186 30.1968 15.4694 30.5196 19.0733C32.3484 17.2445 33.478 14.7702 33.478 12.0269C33.478 6.48655 29.0134 2.022 23.5269 2.022C17.9866 2.022 13.522 6.48655 13.522 12.0269C13.522 14.7702 14.6516 17.2445 16.4804 19.0733C16.8032 15.4694 19.8154 12.6186 23.5269 12.6186ZM29.4976 19.934C29.6589 16.4914 26.9694 13.6406 23.5269 13.6406C20.0306 13.6406 17.3411 16.4914 17.5024 19.934C19.1699 21.2249 21.2677 21.978 23.5269 21.978C25.7323 21.978 27.8301 21.2249 29.4976 19.934Z" fill="url(#paint2_linear_4_308)" stroke="url(#paint3_linear_4_308)"/>
<path d="M3.612 31.48H4.524L8.004 40H6.852L5.844 37.504H2.268L1.272 40H0.12L3.612 31.48ZM5.604 36.664L4.068 32.728L2.484 36.664H5.604ZM11.5576 40.12C11.0856 40.12 10.6536 40.036 10.2616 39.868C9.87759 39.692 9.54159 39.452 9.25359 39.148C8.97359 38.844 8.75359 38.496 8.59359 38.104C8.44159 37.712 8.36559 37.296 8.36559 36.856C8.36559 36.264 8.49759 35.724 8.76159 35.236C9.02559 34.748 9.39759 34.36 9.87759 34.072C10.3576 33.776 10.9136 33.628 11.5456 33.628C12.1616 33.628 12.6976 33.768 13.1536 34.048C13.6176 34.32 13.9616 34.688 14.1856 35.152L13.1536 35.476C12.9936 35.18 12.7696 34.952 12.4816 34.792C12.1936 34.624 11.8736 34.54 11.5216 34.54C11.1376 34.54 10.7856 34.64 10.4656 34.84C10.1536 35.04 9.90559 35.316 9.72159 35.668C9.53759 36.012 9.44559 36.408 9.44559 36.856C9.44559 37.296 9.53759 37.696 9.72159 38.056C9.91359 38.408 10.1656 38.688 10.4776 38.896C10.7976 39.104 11.1496 39.208 11.5336 39.208C11.7816 39.208 12.0176 39.164 12.2416 39.076C12.4736 38.988 12.6736 38.872 12.8416 38.728C13.0176 38.576 13.1376 38.412 13.2016 38.236L14.2336 38.548C14.1056 38.852 13.9096 39.124 13.6456 39.364C13.3896 39.596 13.0816 39.78 12.7216 39.916C12.3696 40.052 11.9816 40.12 11.5576 40.12ZM18.1435 40.12C17.6715 40.12 17.2395 40.036 16.8475 39.868C16.4635 39.692 16.1275 39.452 15.8395 39.148C15.5595 38.844 15.3395 38.496 15.1795 38.104C15.0275 37.712 14.9515 37.296 14.9515 36.856C14.9515 36.264 15.0835 35.724 15.3475 35.236C15.6115 34.748 15.9835 34.36 16.4635 34.072C16.9435 33.776 17.4995 33.628 18.1315 33.628C18.7475 33.628 19.2835 33.768 19.7395 34.048C20.2035 34.32 20.5475 34.688 20.7715 35.152L19.7395 35.476C19.5795 35.18 19.3555 34.952 19.0675 34.792C18.7795 34.624 18.4595 34.54 18.1075 34.54C17.7235 34.54 17.3715 34.64 17.0515 34.84C16.7395 35.04 16.4915 35.316 16.3075 35.668C16.1235 36.012 16.0315 36.408 16.0315 36.856C16.0315 37.296 16.1235 37.696 16.3075 38.056C16.4995 38.408 16.7515 38.688 17.0635 38.896C17.3835 39.104 17.7355 39.208 18.1195 39.208C18.3675 39.208 18.6035 39.164 18.8275 39.076C19.0595 38.988 19.2595 38.872 19.4275 38.728C19.6035 38.576 19.7235 38.412 19.7875 38.236L20.8195 38.548C20.6915 38.852 20.4955 39.124 20.2315 39.364C19.9755 39.596 19.6675 39.78 19.3075 39.916C18.9555 40.052 18.5675 40.12 18.1435 40.12ZM24.6935 40.12C24.2215 40.12 23.7935 40.036 23.4095 39.868C23.0255 39.692 22.6935 39.456 22.4135 39.16C22.1335 38.856 21.9175 38.508 21.7655 38.116C21.6135 37.724 21.5375 37.312 21.5375 36.88C21.5375 36.44 21.6135 36.024 21.7655 35.632C21.9175 35.24 22.1335 34.896 22.4135 34.6C22.6935 34.296 23.0255 34.06 23.4095 33.892C23.8015 33.716 24.2295 33.628 24.6935 33.628C25.1655 33.628 25.5935 33.716 25.9775 33.892C26.3615 34.06 26.6935 34.296 26.9735 34.6C27.2615 34.896 27.4815 35.24 27.6335 35.632C27.7855 36.024 27.8615 36.44 27.8615 36.88C27.8615 37.312 27.7855 37.724 27.6335 38.116C27.4815 38.508 27.2655 38.856 26.9855 39.16C26.7055 39.456 26.3695 39.692 25.9775 39.868C25.5935 40.036 25.1655 40.12 24.6935 40.12ZM22.6175 36.892C22.6175 37.324 22.7095 37.716 22.8935 38.068C23.0855 38.42 23.3375 38.7 23.6495 38.908C23.9615 39.108 24.3095 39.208 24.6935 39.208C25.0775 39.208 25.4255 39.104 25.7375 38.896C26.0575 38.688 26.3095 38.408 26.4935 38.056C26.6855 37.696 26.7815 37.3 26.7815 36.868C26.7815 36.436 26.6855 36.044 26.4935 35.692C26.3095 35.34 26.0575 35.06 25.7375 34.852C25.4255 34.644 25.0775 34.54 24.6935 34.54C24.3095 34.54 23.9615 34.648 23.6495 34.864C23.3375 35.072 23.0855 35.352 22.8935 35.704C22.7095 36.056 22.6175 36.452 22.6175 36.892ZM29.0811 37.492V33.736H30.1371V37.288C30.1371 37.928 30.2491 38.408 30.4731 38.728C30.6971 39.048 31.0291 39.208 31.4691 39.208C31.7571 39.208 32.0331 39.148 32.2971 39.028C32.5691 38.9 32.8131 38.72 33.0291 38.488C33.2451 38.256 33.4131 37.98 33.5331 37.66V33.736H34.5891V38.8C34.5891 38.928 34.6131 39.024 34.6611 39.088C34.7171 39.144 34.8051 39.176 34.9251 39.184V40C34.8051 40.016 34.7091 40.024 34.6371 40.024C34.5731 40.032 34.5091 40.036 34.4451 40.036C34.2451 40.036 34.0731 39.976 33.9291 39.856C33.7851 39.728 33.7091 39.572 33.7011 39.388L33.6771 38.656C33.4051 39.12 33.0371 39.48 32.5731 39.736C32.1171 39.992 31.6171 40.12 31.0731 40.12C30.4171 40.12 29.9211 39.9 29.5851 39.46C29.2491 39.012 29.0811 38.356 29.0811 37.492ZM41.7841 40H40.7281V36.496C40.7281 35.832 40.6241 35.348 40.4161 35.044C40.2161 34.732 39.9081 34.576 39.4921 34.576C39.2041 34.576 38.9161 34.648 38.6281 34.792C38.3481 34.936 38.0961 35.132 37.8721 35.38C37.6561 35.62 37.5001 35.9 37.4041 36.22V40H36.3481V33.736H37.3081V35.08C37.4761 34.784 37.6921 34.528 37.9561 34.312C38.2201 34.096 38.5201 33.928 38.8561 33.808C39.1921 33.688 39.5441 33.628 39.9121 33.628C40.2721 33.628 40.5721 33.696 40.8121 33.832C41.0601 33.96 41.2521 34.144 41.3881 34.384C41.5321 34.616 41.6321 34.892 41.6881 35.212C41.7521 35.532 41.7841 35.88 41.7841 36.256V40ZM46.6076 39.688C46.5196 39.728 46.3996 39.78 46.2476 39.844C46.0956 39.908 45.9196 39.964 45.7196 40.012C45.5196 40.06 45.3076 40.084 45.0836 40.084C44.8276 40.084 44.5916 40.04 44.3756 39.952C44.1596 39.856 43.9876 39.712 43.8596 39.52C43.7316 39.32 43.6676 39.072 43.6676 38.776V34.564H42.8156V33.736H43.6676V31.648H44.7236V33.736H46.1276V34.564H44.7236V38.452C44.7396 38.676 44.8156 38.844 44.9516 38.956C45.0876 39.06 45.2476 39.112 45.4316 39.112C45.6396 39.112 45.8316 39.076 46.0076 39.004C46.1836 38.932 46.2996 38.88 46.3556 38.848L46.6076 39.688Z" fill="url(#paint4_linear_4_308)"/>
<defs>
<linearGradient id="paint0_linear_4_308" x1="23.4997" y1="3.9043" x2="23.4997" y2="11.4349" gradientUnits="userSpaceOnUse">
<stop stop-color="#003049"/>
<stop offset="0.9999" stop-color="#005079"/>
</linearGradient>
<linearGradient id="paint1_linear_4_308" x1="23.4997" y1="3.9043" x2="23.4997" y2="11.4349" gradientUnits="userSpaceOnUse">
<stop stop-color="#003049"/>
<stop offset="0.9999" stop-color="#005079"/>
</linearGradient>
<linearGradient id="paint2_linear_4_308" x1="23.5" y1="1" x2="23.5" y2="23" gradientUnits="userSpaceOnUse">
<stop stop-color="#003049"/>
<stop offset="0.9999" stop-color="#005079"/>
</linearGradient>
<linearGradient id="paint3_linear_4_308" x1="23.5" y1="1" x2="23.5" y2="23" gradientUnits="userSpaceOnUse">
<stop stop-color="#003049"/>
<stop offset="0.9999" stop-color="#005079"/>
</linearGradient>
<linearGradient id="paint4_linear_4_308" x1="23.5" y1="29" x2="23.5" y2="43" gradientUnits="userSpaceOnUse">
<stop stop-color="#003049"/>
<stop offset="0.9999" stop-color="#005079"/>
</linearGradient>
</defs>
</svg>
