<svg width="39" height="41" viewBox="0 0 39 41" fill="none" xmlns="http://www.w3.org/2000/svg">
<path d="M8.118 29.384V38H6.84V34.118H2.346V38H1.062V29.384H2.346V33.188H6.84V29.384H8.118ZM11.1398 31.904V38H9.96975V31.904H11.1398ZM11.3618 30.02C11.3618 30.128 11.3398 30.232 11.2958 30.332C11.2518 30.428 11.1918 30.514 11.1158 30.59C11.0438 30.662 10.9578 30.72 10.8577 30.764C10.7578 30.804 10.6538 30.824 10.5458 30.824C10.4378 30.824 10.3358 30.804 10.2398 30.764C10.1438 30.72 10.0578 30.662 9.98175 30.59C9.90975 30.514 9.85175 30.428 9.80775 30.332C9.76775 30.232 9.74775 30.128 9.74775 30.02C9.74775 29.908 9.76775 29.804 9.80775 29.708C9.85175 29.608 9.90975 29.522 9.98175 29.45C10.0578 29.374 10.1438 29.316 10.2398 29.276C10.3358 29.232 10.4378 29.21 10.5458 29.21C10.6538 29.21 10.7578 29.232 10.8577 29.276C10.9578 29.316 11.0438 29.374 11.1158 29.45C11.1918 29.522 11.2518 29.608 11.2958 29.708C11.3398 29.804 11.3618 29.908 11.3618 30.02ZM16.4277 32.954C16.3957 33.006 16.3617 33.044 16.3257 33.068C16.2897 33.088 16.2437 33.098 16.1877 33.098C16.1237 33.098 16.0517 33.076 15.9717 33.032C15.8957 32.988 15.8017 32.94 15.6897 32.888C15.5817 32.836 15.4537 32.788 15.3057 32.744C15.1577 32.7 14.9817 32.678 14.7777 32.678C14.6097 32.678 14.4557 32.7 14.3157 32.744C14.1797 32.784 14.0637 32.842 13.9677 32.918C13.8717 32.99 13.7977 33.078 13.7457 33.182C13.6937 33.282 13.6677 33.39 13.6677 33.506C13.6677 33.658 13.7117 33.784 13.7997 33.884C13.8917 33.984 14.0097 34.07 14.1537 34.142C14.3017 34.214 14.4677 34.28 14.6517 34.34C14.8397 34.396 15.0297 34.456 15.2217 34.52C15.4177 34.584 15.6077 34.658 15.7917 34.742C15.9797 34.822 16.1457 34.924 16.2897 35.048C16.4377 35.168 16.5557 35.314 16.6437 35.486C16.7357 35.658 16.7817 35.868 16.7817 36.116C16.7817 36.4 16.7297 36.664 16.6257 36.908C16.5257 37.148 16.3757 37.356 16.1757 37.532C15.9797 37.708 15.7357 37.846 15.4437 37.946C15.1517 38.046 14.8177 38.096 14.4417 38.096C14.0217 38.096 13.6337 38.026 13.2777 37.886C12.9217 37.746 12.6237 37.568 12.3837 37.352L12.6597 36.902C12.6917 36.846 12.7317 36.804 12.7797 36.776C12.8277 36.744 12.8917 36.728 12.9717 36.728C13.0477 36.728 13.1257 36.756 13.2057 36.812C13.2857 36.868 13.3817 36.93 13.4937 36.998C13.6057 37.062 13.7417 37.122 13.9017 37.178C14.0617 37.23 14.2617 37.256 14.5017 37.256C14.7017 37.256 14.8757 37.232 15.0237 37.184C15.1717 37.132 15.2937 37.064 15.3897 36.98C15.4897 36.892 15.5637 36.792 15.6117 36.68C15.6597 36.568 15.6837 36.45 15.6837 36.326C15.6837 36.166 15.6377 36.034 15.5457 35.93C15.4577 35.822 15.3397 35.73 15.1917 35.654C15.0477 35.578 14.8817 35.512 14.6937 35.456C14.5057 35.4 14.3137 35.34 14.1177 35.276C13.9217 35.212 13.7297 35.138 13.5417 35.054C13.3537 34.97 13.1857 34.864 13.0377 34.736C12.8937 34.608 12.7757 34.452 12.6837 34.268C12.5957 34.084 12.5517 33.86 12.5517 33.596C12.5517 33.36 12.5997 33.134 12.6957 32.918C12.7957 32.702 12.9377 32.512 13.1217 32.348C13.3097 32.184 13.5397 32.054 13.8117 31.958C14.0877 31.858 14.4017 31.808 14.7537 31.808C15.1577 31.808 15.5217 31.872 15.8457 32C16.1737 32.128 16.4537 32.304 16.6857 32.528L16.4277 32.954ZM19.9566 38.096C19.4646 38.096 19.0846 37.958 18.8166 37.682C18.5526 37.406 18.4206 37.012 18.4206 36.5V32.852H17.7126C17.6446 32.852 17.5866 32.832 17.5386 32.792C17.4946 32.748 17.4726 32.684 17.4726 32.6V32.126L18.4626 31.988L18.7266 30.17C18.7426 30.102 18.7726 30.05 18.8166 30.014C18.8646 29.974 18.9246 29.954 18.9966 29.954H19.5906V32H21.3186V32.852H19.5906V36.422C19.5906 36.662 19.6486 36.842 19.7646 36.962C19.8846 37.078 20.0366 37.136 20.2206 37.136C20.3286 37.136 20.4206 37.122 20.4966 37.094C20.5766 37.066 20.6446 37.036 20.7006 37.004C20.7566 36.968 20.8046 36.936 20.8446 36.908C20.8846 36.88 20.9206 36.866 20.9526 36.866C20.9926 36.866 21.0226 36.876 21.0426 36.896C21.0666 36.912 21.0906 36.94 21.1146 36.98L21.4626 37.544C21.2706 37.72 21.0426 37.856 20.7786 37.952C20.5146 38.048 20.2406 38.096 19.9566 38.096ZM24.9591 31.808C25.4071 31.808 25.8111 31.882 26.1711 32.03C26.5351 32.174 26.8431 32.384 27.0951 32.66C27.3511 32.932 27.5471 33.262 27.6831 33.65C27.8191 34.034 27.8871 34.466 27.8871 34.946C27.8871 35.426 27.8191 35.86 27.6831 36.248C27.5471 36.636 27.3511 36.966 27.0951 37.238C26.8431 37.51 26.5351 37.72 26.1711 37.868C25.8111 38.012 25.4071 38.084 24.9591 38.084C24.5071 38.084 24.0991 38.012 23.7351 37.868C23.3751 37.72 23.0671 37.51 22.8111 37.238C22.5551 36.966 22.3571 36.636 22.2171 36.248C22.0811 35.86 22.0131 35.426 22.0131 34.946C22.0131 34.466 22.0811 34.034 22.2171 33.65C22.3571 33.262 22.5551 32.932 22.8111 32.66C23.0671 32.384 23.3751 32.174 23.7351 32.03C24.0991 31.882 24.5071 31.808 24.9591 31.808ZM24.9591 37.172C25.5351 37.172 25.9651 36.978 26.2491 36.59C26.5331 36.202 26.6751 35.656 26.6751 34.952C26.6751 34.248 26.5331 33.702 26.2491 33.314C25.9651 32.922 25.5351 32.726 24.9591 32.726C24.3751 32.726 23.9391 32.922 23.6511 33.314C23.3671 33.702 23.2251 34.248 23.2251 34.952C23.2251 35.656 23.3671 36.202 23.6511 36.59C23.9391 36.978 24.3751 37.172 24.9591 37.172ZM30.2971 33.074C30.4931 32.674 30.7291 32.36 31.0051 32.132C31.2811 31.904 31.6131 31.79 32.0011 31.79C32.1331 31.79 32.2571 31.806 32.3731 31.838C32.4931 31.866 32.5971 31.91 32.6851 31.97L32.6071 32.852C32.5791 32.96 32.5131 33.014 32.4091 33.014C32.3531 33.014 32.2691 33.004 32.1571 32.984C32.0451 32.96 31.9251 32.948 31.7971 32.948C31.6091 32.948 31.4431 32.976 31.2991 33.032C31.1551 33.084 31.0251 33.164 30.9091 33.272C30.7971 33.376 30.6971 33.506 30.6091 33.662C30.5211 33.814 30.4391 33.988 30.3631 34.184V38H29.1931V31.904H29.8651C29.9931 31.904 30.0791 31.928 30.1231 31.976C30.1711 32.02 30.2051 32.1 30.2251 32.216L30.2971 33.074ZM38.9156 31.904L35.5316 39.77C35.4956 39.858 35.4476 39.926 35.3876 39.974C35.3276 40.022 35.2396 40.046 35.1236 40.046H34.2536L35.3696 37.616L32.8676 31.904H33.8876C33.9876 31.904 34.0656 31.928 34.1216 31.976C34.1776 32.024 34.2176 32.078 34.2416 32.138L35.7896 35.798C35.8216 35.89 35.8516 35.984 35.8796 36.08C35.9116 36.172 35.9376 36.264 35.9576 36.356C35.9856 36.26 36.0156 36.166 36.0476 36.074C36.0796 35.978 36.1136 35.884 36.1496 35.792L37.6436 32.138C37.6716 32.07 37.7156 32.014 37.7756 31.97C37.8356 31.926 37.9036 31.904 37.9796 31.904H38.9156Z" fill="url(#paint0_linear_4_305)"/>
<path d="M29 12C29 17.52 24.52 22 19 22C13.48 22 9 17.52 9 12C9 6.48 13.48 2 19 2C24.52 2 29 6.48 29 12Z" stroke="url(#paint1_linear_4_305)" stroke-width="1.5" stroke-linecap="round" stroke-linejoin="round"/>
<path d="M22.71 15.1798L19.61 13.3298C19.07 13.0098 18.63 12.2398 18.63 11.6098V7.50977" stroke="url(#paint2_linear_4_305)" stroke-width="1.5" stroke-linecap="round" stroke-linejoin="round"/>
<defs>
<linearGradient id="paint0_linear_4_305" x1="19.5" y1="26" x2="19.5" y2="40" gradientUnits="userSpaceOnUse">
<stop stop-color="#003049"/>
<stop offset="0.9999" stop-color="#005079"/>
</linearGradient>
<linearGradient id="paint1_linear_4_305" x1="19" y1="2" x2="19" y2="22" gradientUnits="userSpaceOnUse">
<stop stop-color="#003049"/>
<stop offset="0.9999" stop-color="#005079"/>
</linearGradient>
<linearGradient id="paint2_linear_4_305" x1="20.67" y1="7.50977" x2="20.67" y2="15.1798" gradientUnits="userSpaceOnUse">
<stop stop-color="#003049"/>
<stop offset="0.9999" stop-color="#005079"/>
</linearGradient>
</defs>
</svg>
