<svg width="24" height="24" viewBox="0 0 24 24" fill="none" xmlns="http://www.w3.org/2000/svg">
<path d="M17 3H21C21.5523 3 22 3.44772 22 4V20C22 20.5523 21.5523 21 21 21H3C2.44772 21 2 20.5523 2 20V4C2 3.44772 2.44772 3 3 3H7V1H9V3H15V1H17V3ZM4 9V19H20V9H4ZM6 11H8V13H6V11ZM11 11H13V13H11V11ZM16 11H18V13H16V11Z" fill="url(#paint0_linear_254_2175)"/>
<defs>
<linearGradient id="paint0_linear_254_2175" x1="12" y1="1" x2="12" y2="21" gradientUnits="userSpaceOnUse">
<stop stop-color="#003049"/>
<stop offset="0.9999" stop-color="#005079"/>
</linearGradient>
</defs>
</svg>
