<svg width="15" height="18" viewBox="0 0 15 18" fill="none" xmlns="http://www.w3.org/2000/svg">
<path id="Vector" d="M15 12.7909V16.1613C15 16.6617 14.6617 17.0769 14.2254 17.1121C13.8609 17.1416 13.5636 17.1562 13.3333 17.1562C5.9695 17.1562 0 10.3286 0 1.90625C0 1.64291 0.012875 1.3028 0.038625 0.88593C0.069475 0.386854 0.43245 0 0.869883 0H3.81675C4.03065 0 4.2098 0.185307 4.23127 0.428716C4.25056 0.647239 4.26848 0.82268 4.28506 0.95505C4.45362 2.30153 4.79794 3.58314 5.29058 4.76851C5.36966 4.95878 5.31809 5.18652 5.16821 5.30896L3.36962 6.77843C4.4646 9.70386 6.51575 12.0499 9.0735 13.3023L10.3559 11.2487C10.4643 11.0752 10.6658 11.0156 10.8342 11.107C11.8705 11.67 12.9909 12.0633 14.168 12.2557C14.283 12.2745 14.4354 12.2948 14.6252 12.3168C14.838 12.3413 15 12.5463 15 12.7909Z" fill="url(#paint0_linear_254_2187)"/>
<defs>
<linearGradient id="paint0_linear_254_2187" x1="7.5" y1="0" x2="7.5" y2="17.1562" gradientUnits="userSpaceOnUse">
<stop stop-color="#003049"/>
<stop offset="0.9999" stop-color="#005079"/>
</linearGradient>
</defs>
</svg>
