<svg width="18" height="23" viewBox="0 0 18 23" fill="none" xmlns="http://www.w3.org/2000/svg">
<path d="M15.364 15.864L9 22.2279L2.63604 15.864C-0.87868 12.3492 -0.87868 6.65076 2.63604 3.13604C6.15076 -0.37868 11.8492 -0.37868 15.364 3.13604C18.8787 6.65076 18.8787 12.3492 15.364 15.864ZM9 13.5C11.2091 13.5 13 11.7091 13 9.5C13 7.29086 11.2091 5.5 9 5.5C6.79086 5.5 5 7.29086 5 9.5C5 11.7091 6.79086 13.5 9 13.5ZM9 11.5C7.8954 11.5 7 10.6046 7 9.5C7 8.39543 7.8954 7.5 9 7.5C10.1046 7.5 11 8.39543 11 9.5C11 10.6046 10.1046 11.5 9 11.5Z" fill="#145889"/>
</svg>
