<svg width="24" height="24" viewBox="0 0 24 24" fill="none" xmlns="http://www.w3.org/2000/svg">
<g id="old / ionicons / search">
<path id="Vector" d="M21.4073 19.7536L16.9969 15.3432C18.0587 13.9296 18.6319 12.209 18.63 10.441C18.63 5.92504 14.9559 2.25098 10.44 2.25098C5.92406 2.25098 2.25 5.92504 2.25 10.441C2.25 14.9569 5.92406 18.631 10.44 18.631C12.208 18.6329 13.9286 18.0597 15.3422 16.9979L19.7527 21.4083C19.9759 21.6079 20.2671 21.7144 20.5664 21.706C20.8658 21.6977 21.1506 21.575 21.3623 21.3633C21.574 21.1515 21.6967 20.8668 21.7051 20.5674C21.7135 20.2681 21.6069 19.9769 21.4073 19.7536ZM4.59 10.441C4.59 9.28396 4.9331 8.15292 5.5759 7.19089C6.21871 6.22886 7.13235 5.47905 8.2013 5.03628C9.27025 4.59351 10.4465 4.47766 11.5813 4.70338C12.7161 4.92911 13.7584 5.48626 14.5766 6.3044C15.3947 7.12254 15.9519 8.16491 16.1776 9.2997C16.4033 10.4345 16.2875 11.6107 15.8447 12.6797C15.4019 13.7486 14.6521 14.6623 13.6901 15.3051C12.7281 15.9479 11.597 16.291 10.44 16.291C8.88906 16.2891 7.40217 15.6722 6.30548 14.5755C5.2088 13.4788 4.59186 11.9919 4.59 10.441Z" fill="#757575"/>
</g>
</svg>
