<svg width="199" height="199" viewBox="0 0 199 199" fill="none" xmlns="http://www.w3.org/2000/svg">
<path d="M99.4844 0.78894H99.0345C44.6179 0.78894 0.504639 44.9153 0.504639 99.3479V99.7978C0.504639 154.23 44.6179 198.357 99.0345 198.357H99.4844C153.901 198.357 198.014 154.23 198.014 99.7978V99.3479C198.014 44.9153 153.901 0.78894 99.4844 0.78894Z" fill="#00B0F2"/>
<path d="M37.9125 96.2055C38.1893 96.0671 38.4662 95.9355 38.7361 95.811C43.4277 93.6375 48.1815 91.6025 52.9285 89.5675C53.1845 89.5675 53.6134 89.2699 53.8556 89.173C54.2223 89.0138 54.5891 88.8615 54.9559 88.7023L57.0664 87.7955C58.4781 87.1934 59.8827 86.5912 61.2943 85.989C64.1106 84.7846 66.9269 83.5802 69.7433 82.3689C75.3759 79.9601 81.0156 77.5444 86.6483 75.1357C92.2809 72.7269 97.9204 70.3112 103.553 67.9024C109.186 65.4936 114.825 63.0779 120.458 60.6692C126.091 58.2604 131.73 55.8447 137.363 53.4359C138.615 52.896 139.972 52.0931 141.314 51.8578C142.442 51.657 143.542 51.2694 144.677 51.0548C146.829 50.6465 149.202 50.4803 151.265 51.3732C151.977 51.6847 152.635 52.1208 153.181 52.6676C155.797 55.2563 155.43 59.5063 154.877 63.1472C151.022 88.5223 147.168 113.904 143.307 139.28C142.781 142.761 142.061 146.582 139.314 148.783C136.989 150.645 133.682 150.853 130.81 150.064C127.938 149.268 125.406 147.6 122.921 145.959C112.618 139.134 102.308 132.309 92.0041 125.485C89.5545 123.865 86.8282 121.747 86.8559 118.805C86.8697 117.033 87.9284 115.455 89.0078 114.05C97.962 102.366 110.881 94.3366 120.493 83.1926C121.849 81.6213 122.915 78.7834 121.053 77.8767C119.946 77.3368 118.673 78.0705 117.662 78.7696C104.958 87.5948 92.2602 96.427 79.5555 105.252C75.4106 108.132 71.0651 111.094 66.069 111.8C61.5989 112.437 57.1011 111.191 52.7762 109.918C49.1503 108.852 45.5312 107.758 41.926 106.63C40.0092 106.034 38.0302 105.391 36.5494 104.041C35.0685 102.691 34.2175 100.421 35.1102 98.6212C35.6707 97.4929 36.7571 96.78 37.8988 96.1986L37.9125 96.2055Z" fill="#FEFFFC"/>
</svg>
