<svg width="199" height="199" viewBox="0 0 199 199" fill="none" xmlns="http://www.w3.org/2000/svg">
<path d="M99.8074 0.78894H99.3576C44.941 0.78894 0.827637 44.9153 0.827637 99.3479V99.7978C0.827637 154.23 44.941 198.357 99.3576 198.357H99.8074C154.224 198.357 198.337 154.23 198.337 99.7978V99.3479C198.337 44.9153 154.224 0.78894 99.8074 0.78894Z" fill="#00E510"/>
<path d="M118.83 128.468C93.5519 128.468 72.9865 107.889 72.9796 82.6042C72.9865 76.1947 78.204 70.9826 84.5978 70.9826C85.2552 70.9826 85.9056 71.038 86.5284 71.1487C87.8985 71.3771 89.1994 71.8409 90.3965 72.54C90.5695 72.6438 90.6871 72.8099 90.7148 73.0038L93.3858 89.8444C93.4204 90.0451 93.3582 90.2389 93.2267 90.3843C91.7528 92.0178 89.8706 93.1945 87.7739 93.7829L86.7637 94.0667L87.1442 95.0426C90.5902 103.819 97.6069 110.831 106.388 114.292L107.364 114.68L107.647 113.669C108.236 111.572 109.412 109.689 111.045 108.215C111.163 108.104 111.322 108.049 111.481 108.049C111.516 108.049 111.55 108.049 111.592 108.056L128.427 110.727C128.628 110.762 128.794 110.873 128.898 111.046C129.59 112.243 130.053 113.551 130.289 114.922C130.399 115.531 130.448 116.175 130.448 116.846C130.448 123.249 125.237 128.461 118.83 128.468Z" fill="#FDFDFD"/>
<path d="M163.656 94.0251C162.292 78.6173 155.234 64.3238 143.782 53.782C132.261 43.1778 117.314 37.3359 101.683 37.3359C67.3746 37.3359 39.4605 65.2583 39.4605 99.5764C39.4605 111.094 42.6366 122.314 48.6498 132.088L35.2394 161.782L78.1763 157.207C85.6427 160.266 93.545 161.817 101.676 161.817C103.814 161.817 106.007 161.706 108.208 161.478C110.145 161.27 112.104 160.965 114.027 160.578C142.758 154.77 163.732 129.264 163.898 99.9086V99.5764C163.898 97.7075 163.815 95.8386 163.649 94.0251H163.656ZM79.8301 144.173L56.0747 146.707L63.1675 130.987L61.7489 129.084C61.6451 128.945 61.5413 128.807 61.4237 128.648C55.2651 120.141 52.0128 110.091 52.0128 99.5833C52.0128 72.1869 74.2943 49.8989 101.683 49.8989C127.341 49.8989 149.09 69.9235 151.186 95.4856C151.297 96.8561 151.359 98.2335 151.359 99.5902C151.359 99.9778 151.352 100.359 151.345 100.767C150.82 123.685 134.814 143.149 112.422 148.105C110.713 148.486 108.962 148.776 107.218 148.963C105.405 149.171 103.544 149.275 101.696 149.275C95.1158 149.275 88.722 148.001 82.681 145.481C82.0098 145.212 81.3524 144.921 80.7366 144.623L79.8371 144.187L79.8301 144.173Z" fill="#FDFDFD"/>
</svg>
