<svg width="33" height="52" viewBox="0 0 33 52" fill="none" xmlns="http://www.w3.org/2000/svg">
<path d="M25.33 14.01L18.78 8.77002C17.5 7.75002 15.5 7.74002 14.23 8.76002L7.67999 14.01C6.73999 14.76 6.16999 16.26 6.36999 17.44L7.62999 24.98C7.91999 26.67 9.48999 28 11.2 28H21.8C23.49 28 25.09 26.64 25.38 24.97L26.64 17.43C26.82 16.26 26.25 14.76 25.33 14.01ZM17.25 24C17.25 24.41 16.91 24.75 16.5 24.75C16.09 24.75 15.75 24.41 15.75 24V21C15.75 20.59 16.09 20.25 16.5 20.25C16.91 20.25 17.25 20.59 17.25 21V24Z" fill="url(#paint0_linear_4_302)"/>
<path d="M8.118 35.384V44H6.84V40.118H2.346V44H1.062V35.384H2.346V39.188H6.84V35.384H8.118ZM12.42 37.808C12.868 37.808 13.272 37.882 13.632 38.03C13.996 38.174 14.304 38.384 14.556 38.66C14.812 38.932 15.008 39.262 15.144 39.65C15.28 40.034 15.348 40.466 15.348 40.946C15.348 41.426 15.28 41.86 15.144 42.248C15.008 42.636 14.812 42.966 14.556 43.238C14.304 43.51 13.996 43.72 13.632 43.868C13.272 44.012 12.868 44.084 12.42 44.084C11.968 44.084 11.56 44.012 11.196 43.868C10.836 43.72 10.528 43.51 10.272 43.238C10.016 42.966 9.818 42.636 9.678 42.248C9.542 41.86 9.474 41.426 9.474 40.946C9.474 40.466 9.542 40.034 9.678 39.65C9.818 39.262 10.016 38.932 10.272 38.66C10.528 38.384 10.836 38.174 11.196 38.03C11.56 37.882 11.968 37.808 12.42 37.808ZM12.42 43.172C12.996 43.172 13.426 42.978 13.71 42.59C13.994 42.202 14.136 41.656 14.136 40.952C14.136 40.248 13.994 39.702 13.71 39.314C13.426 38.922 12.996 38.726 12.42 38.726C11.836 38.726 11.4 38.922 11.112 39.314C10.828 39.702 10.686 40.248 10.686 40.952C10.686 41.656 10.828 42.202 11.112 42.59C11.4 42.978 11.836 43.172 12.42 43.172ZM16.654 44V37.904H17.356C17.52 37.904 17.622 37.982 17.662 38.138L17.746 38.72C17.97 38.452 18.218 38.234 18.49 38.066C18.766 37.894 19.088 37.808 19.456 37.808C19.86 37.808 20.188 37.92 20.44 38.144C20.692 38.364 20.876 38.664 20.992 39.044C21.08 38.828 21.194 38.642 21.334 38.486C21.474 38.33 21.63 38.202 21.802 38.102C21.974 38.002 22.156 37.928 22.348 37.88C22.544 37.832 22.742 37.808 22.942 37.808C23.266 37.808 23.554 37.86 23.806 37.964C24.062 38.064 24.278 38.212 24.454 38.408C24.63 38.604 24.764 38.846 24.856 39.134C24.948 39.422 24.994 39.75 24.994 40.118V44H23.818V40.118C23.818 39.662 23.718 39.318 23.518 39.086C23.322 38.854 23.034 38.738 22.654 38.738C22.486 38.738 22.326 38.768 22.174 38.828C22.022 38.884 21.888 38.97 21.772 39.086C21.66 39.202 21.57 39.346 21.502 39.518C21.438 39.69 21.406 39.89 21.406 40.118V44H20.23V40.118C20.23 39.646 20.136 39.298 19.948 39.074C19.76 38.85 19.484 38.738 19.12 38.738C18.868 38.738 18.634 38.804 18.418 38.936C18.202 39.068 18.004 39.248 17.824 39.476V44H16.654ZM30.6061 40.274C30.6061 40.042 30.5721 39.828 30.5041 39.632C30.4401 39.436 30.3441 39.266 30.2161 39.122C30.0881 38.978 29.9321 38.866 29.7481 38.786C29.5641 38.706 29.3521 38.666 29.1121 38.666C28.6201 38.666 28.2321 38.808 27.9481 39.092C27.6681 39.376 27.4901 39.77 27.4141 40.274H30.6061ZM31.5721 43.13C31.4281 43.298 31.2621 43.444 31.0741 43.568C30.8861 43.688 30.6861 43.786 30.4741 43.862C30.2621 43.938 30.0421 43.994 29.8141 44.03C29.5901 44.066 29.3681 44.084 29.1481 44.084C28.7281 44.084 28.3381 44.014 27.9781 43.874C27.6221 43.73 27.3121 43.522 27.0481 43.25C26.7881 42.974 26.5841 42.634 26.4361 42.23C26.2921 41.822 26.2201 41.354 26.2201 40.826C26.2201 40.402 26.2861 40.008 26.4181 39.644C26.5501 39.276 26.7381 38.956 26.9821 38.684C27.2301 38.412 27.5321 38.198 27.8881 38.042C28.2441 37.886 28.6441 37.808 29.0881 37.808C29.4601 37.808 29.8021 37.87 30.1141 37.994C30.4301 38.114 30.7021 38.29 30.9301 38.522C31.1581 38.754 31.3361 39.04 31.4641 39.38C31.5961 39.72 31.6621 40.108 31.6621 40.544C31.6621 40.724 31.6421 40.846 31.6021 40.91C31.5621 40.97 31.4881 41 31.3801 41H27.3841C27.3961 41.364 27.4481 41.682 27.5401 41.954C27.6321 42.222 27.7581 42.446 27.9181 42.626C28.0821 42.806 28.2761 42.94 28.5001 43.028C28.7241 43.116 28.9741 43.16 29.2501 43.16C29.5101 43.16 29.7341 43.13 29.9221 43.07C30.1141 43.01 30.2781 42.946 30.4141 42.878C30.5541 42.806 30.6701 42.74 30.7621 42.68C30.8581 42.62 30.9421 42.59 31.0141 42.59C31.1101 42.59 31.1841 42.626 31.2361 42.698L31.5721 43.13Z" fill="url(#paint1_linear_4_302)"/>
<defs>
<linearGradient id="paint0_linear_4_302" x1="16.5016" y1="8" x2="16.5016" y2="28" gradientUnits="userSpaceOnUse">
<stop stop-color="#003049"/>
<stop offset="0.9999" stop-color="#005079"/>
</linearGradient>
<linearGradient id="paint1_linear_4_302" x1="16.5" y1="32" x2="16.5" y2="46" gradientUnits="userSpaceOnUse">
<stop stop-color="#003049"/>
<stop offset="0.9999" stop-color="#005079"/>
</linearGradient>
</defs>
</svg>
