<svg width="32" height="32" viewBox="0 0 32 32" fill="none" xmlns="http://www.w3.org/2000/svg">
<path d="M22.5199 9.24546C21.7569 8.01996 20.9149 6.84146 20.0614 5.67346C18.9009 4.06846 17.3789 2.70146 16.8909 0.669962C16.8729 0.590462 16.7139 0.481962 16.6379 0.492962C16.5509 0.510962 16.4319 0.633962 16.4099 0.724462C16.2004 1.85596 15.5314 2.74196 14.8699 3.63496C13.6879 5.23646 12.4584 6.80946 11.3234 8.44696C10.3434 9.86046 10.0254 11.4515 10.3254 13.172C10.9219 16.556 13.8574 18.8265 17.3609 18.5805C20.5749 18.3565 23.2104 15.457 23.2284 11.9825C23.2974 11.0965 23.0514 10.1095 22.5199 9.24546ZM20.0509 12.962H17.6179V15.406H15.8389V12.98H13.4094V11.2155H15.8389V8.74596H17.5959V11.1825H20.0509V12.962Z" fill="white"/>
<path d="M28.9478 16.428C28.6503 15.95 28.3218 15.4905 27.9893 15.035C27.5368 14.409 26.9433 13.876 26.7528 13.084C26.7458 13.053 26.6838 13.0105 26.6543 13.015C26.6203 13.022 26.5738 13.07 26.5653 13.105C26.4833 13.5465 26.2228 13.8915 25.9648 14.24C25.5038 14.8645 25.0243 15.478 24.5818 16.1165C24.1998 16.6675 24.0758 17.288 24.1928 17.959C24.4253 19.2785 25.5703 20.164 26.9363 20.068C28.1898 19.9805 29.2173 18.85 29.2243 17.495C29.2513 17.15 29.1553 16.765 28.9478 16.428Z" fill="white"/>
<path d="M30.9663 23.179C30.5998 23.1315 30.1858 23.2115 29.8318 23.34C27.7013 24.1135 25.6738 25.0155 23.5518 25.812C23.4468 25.8515 23.3258 25.8955 23.2578 25.976C22.7053 26.627 21.9773 26.89 21.1613 26.8995C19.8413 26.915 18.5218 26.959 17.2018 26.9905C16.3068 27.012 15.4113 27.035 14.5163 27.051C14.2903 27.055 14.0053 26.803 13.9903 26.5385C13.9753 26.2735 14.1563 26.1835 14.3858 26.161C14.4773 26.152 14.5688 26.1455 14.6608 26.143C15.7738 26.1145 16.8873 26.087 18.0003 26.0595C19.1708 26.0305 20.3423 26.022 21.5113 25.965C22.3288 25.925 22.8843 25.3165 22.8978 24.5335C22.9123 23.6925 22.2603 23.057 21.3738 23.0735C20.0603 23.0985 18.3988 22.919 17.0518 22.71C15.4493 22.4615 14.6698 21.6415 13.1153 21.142C10.7198 20.372 8.26779 20.6515 5.79479 20.702C5.79029 20.53 5.78629 20.3575 5.78179 20.1855C5.76779 19.6415 5.50329 19.4045 4.95279 19.4175C3.5078 19.4505 2.0628 19.486 0.617797 19.5215C0.528797 19.5235 0.440297 19.535 0.279297 19.548C0.359797 20.318 0.414797 21.0685 0.520797 21.812C0.915297 24.584 1.8813 27.147 3.3963 29.5C3.4658 29.6075 3.6393 29.705 3.7673 29.708C4.2598 29.721 4.75329 29.6985 5.24629 29.681C5.73479 29.664 6.00329 29.387 5.99229 28.889C5.98929 28.748 5.98579 28.607 5.98229 28.4655C5.98479 28.466 5.98629 28.467 5.98879 28.4675C7.10079 28.7835 8.20729 29.1185 9.31779 29.4395C11.3853 30.0365 13.4408 30.681 15.5263 31.205C17.2563 31.64 19.0003 31.691 20.6448 30.7855C24.1288 28.8675 27.6158 26.9545 31.0968 25.031C31.2708 24.935 31.4278 24.7775 31.5433 24.6135C31.9363 24.058 31.6403 23.2665 30.9663 23.179Z" fill="white"/>
</svg>
