<svg width="40" height="40" viewBox="0 0 40 40" fill="none" xmlns="http://www.w3.org/2000/svg">
<g clip-path="url(#clip0_761_4381)">
<path d="M36.932 22.6663L33.8841 11.7002C32.9908 8.48765 31.0492 5.66587 28.368 3.68343C25.6869 1.70098 22.42 0.671651 19.0867 0.759046C15.7534 0.84644 12.5449 2.04555 9.97129 4.16576C7.39769 6.28598 5.60664 9.20562 4.88285 12.4606L2.52315 23.0721C2.2625 24.2446 2.26853 25.4607 2.54079 26.6306C2.81304 27.8005 3.34458 28.8943 4.09615 29.8313C4.84772 30.7683 5.80013 31.5245 6.88307 32.0441C7.96601 32.5637 9.15183 32.8334 10.353 32.8334H12.14C12.5082 34.6466 13.4918 36.2767 14.9244 37.4475C16.3569 38.6184 18.1501 39.2581 20.0003 39.2581C21.8504 39.2581 23.6437 38.6184 25.0762 37.4475C26.5087 36.2767 27.4924 34.6466 27.8606 32.8334H29.2049C30.4414 32.8335 31.6611 32.5477 32.7689 31.9983C33.8766 31.449 34.8424 30.6509 35.5907 29.6666C36.339 28.6822 36.8495 27.5381 37.0825 26.3238C37.3155 25.1094 37.2645 23.8577 36.9336 22.6663H36.932ZM20.0003 36.0417C19.0085 36.0376 18.0422 35.7272 17.2336 35.1529C16.425 34.5786 15.8136 33.7685 15.483 32.8334H24.5176C24.187 33.7685 23.5756 34.5786 22.767 35.1529C21.9584 35.7272 20.9921 36.0376 20.0003 36.0417ZM33.0356 27.7242C32.5886 28.3172 32.0094 28.7977 31.3442 29.1277C30.6789 29.4577 29.9459 29.628 29.2033 29.6251H10.353C9.63237 29.625 8.92099 29.463 8.27134 29.1512C7.6217 28.8394 7.05037 28.3856 6.59954 27.8235C6.1487 27.2613 5.82987 26.6051 5.66657 25.9032C5.50327 25.2013 5.49967 24.4717 5.65604 23.7683L8.01413 13.1552C8.58257 10.5985 9.98933 8.30521 12.0108 6.63985C14.0322 4.97449 16.5524 4.03265 19.1706 3.96406C21.7888 3.89547 24.3548 4.70407 26.4607 6.2613C28.5665 7.81854 30.0914 10.035 30.793 12.5585L33.8408 23.5245C34.0422 24.2389 34.0743 24.9905 33.9345 25.7195C33.7947 26.4485 33.4869 27.1349 33.0356 27.7242Z" fill="url(#paint0_linear_761_4381)"/>
</g>
<ellipse cx="30.6863" cy="11.4442" rx="8.55543" ry="8.5555" fill="url(#paint1_linear_761_4381)"/>
<defs>
<linearGradient id="paint0_linear_761_4381" x1="19.7791" y1="0.753906" x2="19.7791" y2="39.2581" gradientUnits="userSpaceOnUse">
<stop stop-color="#003049"/>
<stop offset="0.9999" stop-color="#005079"/>
</linearGradient>
<linearGradient id="paint1_linear_761_4381" x1="30.6863" y1="2.88867" x2="30.6863" y2="19.9997" gradientUnits="userSpaceOnUse">
<stop stop-color="#003049"/>
<stop offset="0.9999" stop-color="#005079"/>
</linearGradient>
<clipPath id="clip0_761_4381">
<rect width="38.4994" height="38.4997" fill="white" transform="translate(0.75 0.75)"/>
</clipPath>
</defs>
</svg>
