<svg width="32" height="40" viewBox="0 0 32 40" fill="none" xmlns="http://www.w3.org/2000/svg">
<path d="M22.477 13.7915H17.1458C14.9282 13.7915 12.8578 14.8955 11.6098 16.7131C11.4338 16.4667 11.2354 16.2363 11.0146 16.0219C10.1058 15.1483 8.91862 14.6747 7.66102 14.6747C7.62582 14.6747 7.59062 14.6747 7.55542 14.6747C6.25942 14.7035 5.05302 15.2315 4.15702 16.1691C3.26102 17.1035 2.78102 18.3323 2.80982 19.6283C2.83862 20.9243 3.36662 22.1307 4.30422 23.0267C5.64182 24.3099 7.58422 24.7131 9.31222 24.0859L11.1906 25.8843C11.2706 25.9611 11.3826 25.9995 11.4946 25.9835L12.9026 25.7979L12.7746 27.2123C12.765 27.3243 12.8066 27.4363 12.8866 27.5131L13.6578 28.2491C13.7378 28.3259 13.853 28.3643 13.9618 28.3483L15.3698 28.1627L15.2418 29.5771C15.2322 29.6891 15.2738 29.8011 15.3538 29.8779L16.2242 30.7131C16.2914 30.7771 16.3778 30.8123 16.4706 30.8155L19.1266 30.8923C19.1298 30.8923 19.133 30.8923 19.1362 30.8923C19.2386 30.8923 19.3346 30.8507 19.405 30.7771C19.4786 30.7003 19.5138 30.5979 19.5074 30.4923L19.3154 27.8427C19.309 27.7499 19.2674 27.6667 19.2034 27.6027L16.877 25.3723H28.8322C29.037 25.3723 29.2034 25.2059 29.2034 25.0011V20.5115C29.197 16.8059 26.1826 13.7915 22.477 13.7915ZM18.7362 30.1435L16.6338 30.0795L15.9938 29.4683L16.1442 27.7723C16.1538 27.6603 16.1122 27.5483 16.0322 27.4715C15.9522 27.3947 15.8402 27.3563 15.7282 27.3723L14.0386 27.5963L13.5266 27.1067L13.677 25.4107C13.6866 25.2987 13.645 25.1867 13.565 25.1099C13.485 25.0331 13.373 24.9947 13.261 25.0107L11.5714 25.2347L9.65142 23.3947C9.54582 23.2923 9.38902 23.2635 9.25142 23.3211C7.73782 23.9579 5.99702 23.6347 4.81302 22.4987C4.01942 21.7403 3.57142 20.7163 3.54582 19.6187C3.52342 18.5211 3.92662 17.4811 4.68822 16.6875C5.44662 15.8939 6.47062 15.4459 7.56822 15.4203C8.66262 15.3947 9.70582 15.8011 10.4994 16.5627C11.6834 17.6955 12.0802 19.4235 11.5106 20.9627C11.4594 21.1003 11.4946 21.2571 11.6034 21.3595L18.5858 28.0507L18.7362 30.1435ZM28.4546 24.6363H16.0962L12.285 20.9819C12.6594 19.7883 12.5538 18.5179 12.029 17.4267C13.1138 15.6379 15.0562 14.5339 17.1458 14.5339H22.4802C25.7762 14.5339 28.4578 17.2155 28.4578 20.5115V24.6363H28.4546ZM19.8114 13.2667C23.165 13.2667 25.8946 10.5371 25.8946 7.18351C25.8946 3.82992 23.165 1.10352 19.8114 1.10352C16.4578 1.10352 13.7282 3.83311 13.7282 7.18671C13.7282 10.5403 16.4578 13.2667 19.8114 13.2667ZM19.8114 1.84592C22.7554 1.84592 25.1522 4.24271 25.1522 7.18671C25.1522 10.1307 22.7554 12.5275 19.8114 12.5275C16.8674 12.5275 14.4706 10.1307 14.4706 7.18671C14.4706 4.24271 16.8674 1.84592 19.8114 1.84592ZM5.31542 17.2859C4.96342 17.6539 4.77462 18.1371 4.78422 18.6491C4.79382 19.1611 5.00502 19.6347 5.37302 19.9867C5.73142 20.3291 6.19862 20.5179 6.69142 20.5179C6.70422 20.5179 6.72022 20.5179 6.73302 20.5179C7.24182 20.5083 7.71862 20.2971 8.07062 19.9291C8.42262 19.5611 8.61142 19.0779 8.60182 18.5659C8.59222 18.0571 8.38102 17.5803 8.01302 17.2283C7.25462 16.4987 6.04502 16.5243 5.31542 17.2859ZM7.53942 19.4139C7.32502 19.6379 7.03382 19.7659 6.72022 19.7723C6.40982 19.7787 6.11222 19.6635 5.88822 19.4491C5.66422 19.2347 5.53622 18.9435 5.52982 18.6299C5.52342 18.3195 5.63862 18.0219 5.85302 17.7979C6.08342 17.5579 6.38742 17.4395 6.69782 17.4395C6.98902 17.4395 7.28022 17.5483 7.50422 17.7627C7.72822 17.9771 7.85622 18.2683 7.86262 18.5819C7.86902 18.8923 7.75382 19.1899 7.53942 19.4139Z" fill="white"/>
</svg>
