<svg width="24" height="24" viewBox="0 0 24 24" fill="none" xmlns="http://www.w3.org/2000/svg">
<path d="M0 12C0 12.7364 0.59696 13.3333 1.33333 13.3333H9.33333C10.0697 13.3333 10.6667 12.7364 10.6667 12V1.33333C10.6667 0.59696 10.0697 0 9.33333 0H1.33333C0.59696 0 0 0.59696 0 1.33333V12ZM0 22.6667C0 23.4031 0.59696 24 1.33333 24H9.33333C10.0697 24 10.6667 23.4031 10.6667 22.6667V17.3333C10.6667 16.5969 10.0697 16 9.33333 16H1.33333C0.59696 16 0 16.5969 0 17.3333V22.6667ZM13.3333 22.6667C13.3333 23.4031 13.9303 24 14.6667 24H22.6667C23.4031 24 24 23.4031 24 22.6667V12C24 11.2636 23.4031 10.6667 22.6667 10.6667H14.6667C13.9303 10.6667 13.3333 11.2636 13.3333 12V22.6667ZM14.6667 0C13.9303 0 13.3333 0.59696 13.3333 1.33333V6.66667C13.3333 7.40304 13.9303 8 14.6667 8H22.6667C23.4031 8 24 7.40304 24 6.66667V1.33333C24 0.59696 23.4031 0 22.6667 0H14.6667Z" fill="white"/>
</svg>
