<svg width="26" height="28" viewBox="0 0 26 28" fill="none" xmlns="http://www.w3.org/2000/svg">
<path d="M6.06981 3.02368C5.06179 3.02368 4.0764 3.3226 3.23826 3.88263C2.40012 4.44266 1.74686 5.23865 1.36111 6.16994C0.975353 7.10123 0.874422 8.126 1.07108 9.11466C1.26773 10.1033 1.75314 11.0115 2.46593 11.7242C3.17871 12.437 4.08685 12.9224 5.0755 13.1191C6.06416 13.3157 7.08893 13.2148 8.02023 12.8291C8.95152 12.4433 9.74751 11.79 10.3075 10.9519C10.8676 10.1138 11.1665 9.12838 11.1665 8.12035C11.1656 6.7689 10.6283 5.47306 9.67273 4.51744C8.71711 3.56182 7.42126 3.02457 6.06981 3.02368ZM8.33315 9.45368L7.38981 10.397L6.05648 9.06368L4.72315 10.397L3.77981 9.45368L5.11315 8.12035L3.77981 6.78702L4.72315 5.84702L6.05648 7.18035L7.38981 5.84702L8.33315 6.78368L6.99981 8.11702L8.33315 9.45368ZM20.9665 7.84702C20.0558 7.84261 19.1839 7.478 18.5413 6.83282C17.8986 6.18764 17.5374 5.31434 17.5365 4.40368V0.360352H7.82315C7.35119 0.361756 6.88806 0.488391 6.48105 0.727325C6.07404 0.966259 5.73774 1.30893 5.50648 1.72035C5.69315 1.70368 5.87981 1.69035 6.06981 1.69035C6.92631 1.67085 7.77807 1.8227 8.57506 2.13699C9.37205 2.45128 10.0982 2.92167 10.7108 3.52052C11.3235 4.11938 11.8103 4.83463 12.1427 5.62425C12.475 6.41388 12.6462 7.26196 12.6462 8.11868C12.6462 8.9754 12.475 9.82349 12.1427 10.6131C11.8103 11.4027 11.3235 12.118 10.7108 12.7168C10.0982 13.3157 9.37205 13.7861 8.57506 14.1004C7.77807 14.4147 6.92631 14.5665 6.06981 14.547C5.76637 14.544 5.46346 14.5206 5.16315 14.477V24.9803C5.16315 25.6876 5.4441 26.3659 5.9442 26.866C6.44429 27.3661 7.12257 27.647 7.82982 27.647H22.3632C23.0704 27.647 23.7487 27.3661 24.2488 26.866C24.7489 26.3659 25.0298 25.6876 25.0298 24.9803V7.84702H20.9665ZM20.0931 24.0003H10.0931V22.667H20.0931V24.0003ZM20.0931 20.667H10.0931V19.3337H20.0931V20.667ZM20.0931 17.3337H10.0931V16.0003H20.0931V17.3337ZM18.8698 4.40368V0.633685L24.6365 6.51368H20.9698C20.4122 6.51017 19.8786 6.28642 19.4853 5.89119C19.0919 5.49597 18.8707 4.96129 18.8698 4.40368Z" fill="white"/>
</svg>
