<svg width="84" height="77" viewBox="0 0 84 77" fill="none" xmlns="http://www.w3.org/2000/svg">
<ellipse cx="42" cy="38.4661" rx="42" ry="38.4661" fill="url(#paint0_linear_11_389)"/>
<path d="M46.0666 49.2274L48.5999 51.5476L53.6666 46.9072" stroke="#00AC4F" stroke-width="2.5" stroke-linecap="round" stroke-linejoin="round"/>
<path d="M42.267 36.7406C42.1003 36.7253 41.9003 36.7253 41.717 36.7406C37.7503 36.6185 34.6003 33.642 34.6003 29.9785C34.5836 26.2388 37.9003 23.2012 41.9836 23.2012C46.067 23.2012 49.3836 26.2388 49.3836 29.9785C49.3836 33.642 46.217 36.6185 42.267 36.7406Z" stroke="#00AC4F" stroke-width="2.5" stroke-linecap="round" stroke-linejoin="round"/>
<path d="M41.9831 53.4397C38.9498 53.4397 35.9331 52.7375 33.6331 51.3332C29.5998 48.8604 29.5998 44.8306 33.6331 42.3731C38.2165 39.5644 45.7331 39.5644 50.3165 42.3731" stroke="#00AC4F" stroke-width="2.5" stroke-linecap="round" stroke-linejoin="round"/>
<defs>
<linearGradient id="paint0_linear_11_389" x1="74.55" y1="1.96174e-06" x2="46.6602" y2="78.586" gradientUnits="userSpaceOnUse">
<stop stop-color="#D3FFE7"/>
<stop offset="1" stop-color="#EFFFF6"/>
</linearGradient>
</defs>
</svg>
