<svg width="32" height="32" viewBox="0 0 32 32" fill="none" xmlns="http://www.w3.org/2000/svg">
<g id="Frame">
<path id="Vector" d="M4 16C4 16.7364 4.59696 17.3333 5.33333 17.3333H13.3333C14.0697 17.3333 14.6667 16.7364 14.6667 16V5.33333C14.6667 4.59696 14.0697 4 13.3333 4H5.33333C4.59696 4 4 4.59696 4 5.33333V16ZM4 26.6667C4 27.4031 4.59696 28 5.33333 28H13.3333C14.0697 28 14.6667 27.4031 14.6667 26.6667V21.3333C14.6667 20.5969 14.0697 20 13.3333 20H5.33333C4.59696 20 4 20.5969 4 21.3333V26.6667ZM17.3333 26.6667C17.3333 27.4031 17.9303 28 18.6667 28H26.6667C27.4031 28 28 27.4031 28 26.6667V16C28 15.2636 27.4031 14.6667 26.6667 14.6667H18.6667C17.9303 14.6667 17.3333 15.2636 17.3333 16V26.6667ZM18.6667 4C17.9303 4 17.3333 4.59696 17.3333 5.33333V10.6667C17.3333 11.403 17.9303 12 18.6667 12H26.6667C27.4031 12 28 11.403 28 10.6667V5.33333C28 4.59696 27.4031 4 26.6667 4H18.6667Z" fill="white"/>
</g>
</svg>
