<svg width="32" height="34" viewBox="0 0 32 34" fill="none" xmlns="http://www.w3.org/2000/svg">
<path id="Vector" d="M15.9999 0L0 16.0001H3.23964C3.39347 16.0001 3.541 16.0613 3.64977 16.17C3.75855 16.2788 3.81965 16.4263 3.81965 16.5802V32.2404C3.82002 32.548 3.94235 32.8428 4.15982 33.0603C4.37729 33.2777 4.67213 33.4001 4.97967 33.4004H27.02C27.3276 33.4001 27.6224 33.2778 27.8399 33.0603C28.0574 32.8428 28.1797 32.548 28.1801 32.2404V16.5802C28.1801 16.4263 28.2412 16.2788 28.3499 16.17C28.4587 16.0613 28.6062 16.0001 28.7601 16.0001H32L15.9999 0ZM15.9999 31.0804C13.6932 31.0778 11.4818 30.1604 9.85077 28.5293C8.21973 26.8983 7.30228 24.6869 7.29971 22.3803C7.29971 17.7334 15.2231 8.47365 15.5604 8.08164C15.6164 8.02108 15.6844 7.97276 15.7601 7.93972C15.8357 7.90668 15.9174 7.88962 15.9999 7.88962C16.0824 7.88962 16.1641 7.90668 16.2397 7.93972C16.3154 7.97276 16.3833 8.02108 16.4394 8.08164C16.7769 8.47365 24.7 17.7334 24.7 22.3803C24.6974 24.6869 23.78 26.8983 22.1489 28.5293C20.5179 30.1604 18.3065 31.0778 15.9999 31.0804Z" fill="white"/>
</svg>
