<svg width="32" height="41" viewBox="0 0 32 41" fill="none" xmlns="http://www.w3.org/2000/svg">
<path d="M7.55849 9.83473V9.83592L20.6619 9.83473C20.9176 9.83473 21.1256 10.0518 21.1256 10.32C21.1256 10.5881 20.9176 10.8052 20.6619 10.8052H7.55849C7.30167 10.8052 7.09371 10.5881 7.09371 10.32C7.09371 10.0518 7.30166 9.83473 7.55849 9.83473ZM7.55849 12.9963V12.9975L20.6619 12.9963C20.9176 12.9963 21.1256 13.2134 21.1256 13.4815C21.1256 13.7496 20.9176 13.9667 20.6619 13.9667H7.55849C7.30167 13.9667 7.09371 13.7496 7.09371 13.4815C7.09371 13.2134 7.30166 12.9963 7.55849 12.9963ZM7.55849 16.1578V16.159L13.5233 16.1578C13.7801 16.1578 13.9881 16.3749 13.9881 16.6431C13.9881 16.9112 13.7801 17.1283 13.5233 17.1283H7.55849C7.30167 17.1283 7.09371 16.9112 7.09371 16.6431C7.09371 16.375 7.30166 16.1578 7.55849 16.1578ZM7.55849 19.3194V19.3206L12.5688 19.3194C12.8256 19.3194 13.0336 19.5365 13.0336 19.8046C13.0336 20.0727 12.8257 20.2899 12.5688 20.2899H7.55849C7.30167 20.2899 7.09371 20.0728 7.09371 19.8046C7.09371 19.5365 7.30166 19.3194 7.55849 19.3194ZM20.6084 17.4414V17.4426C20.7357 17.4414 20.8629 17.496 20.9538 17.6028C21.1254 17.8021 21.1107 18.1082 20.9197 18.2873L17.871 21.1487C17.7858 21.2294 17.6744 21.2733 17.5608 21.2733C17.5392 21.2733 17.5165 21.2721 17.4949 21.2686C17.3585 21.2484 17.2381 21.1654 17.1653 21.0432L16.1256 19.2909C15.9904 19.0632 16.0574 18.7642 16.2756 18.623C16.3517 18.5732 16.4369 18.5495 16.5199 18.5495C16.6756 18.5495 16.8278 18.6313 16.9154 18.7796L17.6631 20.0395L20.2983 17.566C20.3869 17.483 20.4982 17.4414 20.6084 17.4414ZM17.4276 16.5066C18.2992 16.5066 19.0924 16.8565 19.6855 17.4284L18.989 18.0797C18.5696 17.7036 18.0242 17.477 17.4276 17.477C16.1037 17.477 15.031 18.5969 15.031 19.979C15.031 21.3611 16.1037 22.481 17.4276 22.481C18.7344 22.481 19.7969 21.3896 19.8242 20.0324L20.6765 19.2316C20.7276 19.4725 20.7537 19.7228 20.7537 19.979C20.7537 21.8961 19.2651 23.4516 17.4275 23.4516C15.5911 23.4516 14.1012 21.8963 14.1012 19.979C14.1012 18.0618 15.5899 16.5077 17.4263 16.5077H17.4274L17.4276 16.5066ZM4.71282 6.00391V6.00509L4.71168 6.00628C4.58895 6.00509 4.47191 6.0561 4.38441 6.14627C4.29805 6.23762 4.24805 6.361 4.24805 6.48912V27.9051C4.24805 28.8743 4.76965 29.7154 5.53442 30.1402C5.52419 30.0785 5.51851 30.0144 5.51851 29.9492C5.51851 29.3275 6.00374 28.8304 6.59918 28.8304C6.64122 28.8304 6.73327 28.8257 6.73327 28.8257C7.19235 28.7996 7.55485 28.3939 7.55599 27.9075C7.55599 27.8826 7.55258 26.6927 7.55258 26.6927C7.55258 26.0947 8.00032 25.6024 8.56849 25.5704L23.8287 25.5668V6.49059C23.8287 6.22248 23.6208 6.00536 23.3639 6.00536L4.71282 6.00391ZM8.62758 26.2084V26.2096C8.3719 26.2084 8.16623 26.4255 8.16623 26.6924C8.16623 26.7138 8.1685 27.9049 8.1685 27.9049C8.1685 28.7424 7.53895 29.4329 6.74692 29.4661C6.61737 29.4708 6.60146 29.4708 6.60146 29.4708C6.34465 29.4708 6.13214 29.6808 6.13214 29.9489C6.13214 30.2099 6.32987 30.4235 6.57874 30.4341L25.3287 30.4365C26.6662 30.4341 27.7492 29.3012 27.7492 27.9049V26.677C27.7435 26.4136 27.5389 26.206 27.2855 26.206L8.62758 26.2084Z" fill="white"/>
</svg>
