<svg width="32" height="41" viewBox="0 0 32 41" fill="none" xmlns="http://www.w3.org/2000/svg">
<g id="noun-approved-7018854 1">
<path id="Vector" d="M7.56045 9.83473V9.83592L20.6639 9.83473C20.9195 9.83473 21.1275 10.0518 21.1275 10.32C21.1275 10.5881 20.9196 10.8052 20.6639 10.8052H7.56045C7.30363 10.8052 7.09566 10.5881 7.09566 10.32C7.09566 10.0518 7.30361 9.83473 7.56045 9.83473ZM7.56045 12.9963V12.9975L20.6639 12.9963C20.9195 12.9963 21.1275 13.2134 21.1275 13.4815C21.1275 13.7496 20.9196 13.9667 20.6639 13.9667H7.56045C7.30363 13.9667 7.09566 13.7496 7.09566 13.4815C7.09566 13.2134 7.30361 12.9963 7.56045 12.9963ZM7.56045 16.1578V16.159L13.5252 16.1578C13.7821 16.1578 13.99 16.3749 13.99 16.6431C13.99 16.9112 13.7821 17.1283 13.5252 17.1283H7.56045C7.30363 17.1283 7.09566 16.9112 7.09566 16.6431C7.09566 16.375 7.30361 16.1578 7.56045 16.1578ZM7.56045 19.3194V19.3206L12.5708 19.3194C12.8276 19.3194 13.0356 19.5365 13.0356 19.8046C13.0356 20.0727 12.8276 20.2899 12.5708 20.2899H7.56045C7.30363 20.2899 7.09566 20.0728 7.09566 19.8046C7.09566 19.5365 7.30361 19.3194 7.56045 19.3194ZM20.6103 17.4414V17.4426C20.7376 17.4414 20.8649 17.496 20.9558 17.6028C21.1274 17.8021 21.1126 18.1082 20.9217 18.2873L17.873 21.1487C17.7877 21.2294 17.6764 21.2733 17.5627 21.2733C17.5412 21.2733 17.5184 21.2721 17.4968 21.2686C17.3605 21.2484 17.24 21.1654 17.1673 21.0432L16.1275 19.2909C15.9923 19.0632 16.0593 18.7642 16.2775 18.623C16.3537 18.5732 16.4389 18.5495 16.5218 18.5495C16.6775 18.5495 16.8298 18.6313 16.9173 18.7796L17.665 20.0395L20.3003 17.566C20.3889 17.483 20.5001 17.4414 20.6103 17.4414ZM17.4295 16.5066C18.3011 16.5066 19.0943 16.8565 19.6875 17.4284L18.9909 18.0797C18.5716 17.7036 18.0261 17.477 17.4295 17.477C16.1057 17.477 15.0329 18.5969 15.0329 19.979C15.0329 21.3611 16.1057 22.481 17.4295 22.481C18.7364 22.481 19.7988 21.3896 19.8261 20.0324L20.6784 19.2316C20.7295 19.4725 20.7557 19.7228 20.7557 19.979C20.7557 21.8961 19.267 23.4516 17.4294 23.4516C15.5931 23.4516 14.1032 21.8963 14.1032 19.979C14.1032 18.0618 15.5918 16.5077 17.4283 16.5077H17.4294L17.4295 16.5066ZM4.71477 6.00391V6.00509L4.71364 6.00628C4.59091 6.00509 4.47386 6.0561 4.38636 6.14627C4.3 6.23762 4.25 6.361 4.25 6.48912V27.9051C4.25 28.8743 4.7716 29.7154 5.53637 30.1402C5.52614 30.0785 5.52046 30.0144 5.52046 29.9492C5.52046 29.3275 6.0057 28.8304 6.60113 28.8304C6.64318 28.8304 6.73522 28.8257 6.73522 28.8257C7.19431 28.7996 7.55681 28.3939 7.55794 27.9075C7.55794 27.8826 7.55453 26.6927 7.55453 26.6927C7.55453 26.0947 8.00227 25.6024 8.57045 25.5704L23.8307 25.5668V6.49059C23.8307 6.22248 23.6227 6.00536 23.3659 6.00536L4.71477 6.00391ZM8.62954 26.2084V26.2096C8.37385 26.2084 8.16818 26.4255 8.16818 26.6924C8.16818 26.7138 8.17046 27.9049 8.17046 27.9049C8.17046 28.7424 7.5409 29.4329 6.74887 29.4661C6.61933 29.4708 6.60342 29.4708 6.60342 29.4708C6.3466 29.4708 6.13409 29.6808 6.13409 29.9489C6.13409 30.2099 6.33182 30.4235 6.5807 30.4341L25.3307 30.4365C26.6682 30.4341 27.7511 29.3012 27.7511 27.9049V26.677C27.7454 26.4136 27.5409 26.206 27.2875 26.206L8.62954 26.2084Z" fill="white"/>
</g>
</svg>
