<svg width="84" height="77" viewBox="0 0 84 77" fill="none" xmlns="http://www.w3.org/2000/svg">
<ellipse cx="42" cy="38.4661" rx="42" ry="38.4661" fill="#D5294D" fill-opacity="0.15"/>
<path d="M47.5001 53.2653L52.5668 48.625M47.5001 48.625L52.9668 53.3048" stroke="#C53F3F" stroke-width="2.5" stroke-linecap="round" stroke-linejoin="round"/>
<path d="M43.2669 38.2172C43.1003 38.2019 42.9003 38.2019 42.7169 38.2172C38.7503 38.0951 35.6003 35.1185 35.6003 31.4551C35.5836 27.7153 38.9003 24.6777 42.9836 24.6777C47.0669 24.6777 50.3836 27.7153 50.3836 31.4551C50.3836 35.1185 47.2169 38.0951 43.2669 38.2172Z" stroke="#C53F3F" stroke-width="2.5" stroke-linecap="round" stroke-linejoin="round"/>
<path d="M42.9832 54.9163C39.9498 54.9163 36.9332 54.2141 34.6332 52.8098C30.5998 50.337 30.5998 46.3072 34.6332 43.8496C39.2165 41.041 46.7332 41.041 51.3165 43.8496" stroke="#C53F3F" stroke-width="2.5" stroke-linecap="round" stroke-linejoin="round"/>
</svg>
