<svg width="26" height="26" viewBox="0 0 26 26" fill="none" xmlns="http://www.w3.org/2000/svg">
<g id="fi-rr-bell" clip-path="url(#clip0_464_1741)">
<path id="Vector" d="M23.8833 14.7133L21.924 7.66378C21.3497 5.59858 20.1015 3.7846 18.378 2.51019C16.6544 1.23578 14.5542 0.574076 12.4114 0.630257C10.2686 0.686438 8.20599 1.45728 6.55155 2.82026C4.8971 4.18323 3.74572 6.06012 3.28042 8.15258L1.76349 14.9742C1.59593 15.7279 1.5998 16.5097 1.77482 17.2618C1.94984 18.0138 2.29154 18.717 2.77469 19.3193C3.25784 19.9216 3.8701 20.4077 4.56627 20.7418C5.26245 21.0758 6.02475 21.2492 6.79691 21.2492H7.9457C8.18238 22.4148 8.81475 23.4627 9.73565 24.2154C10.6565 24.9681 11.8093 25.3793 12.9987 25.3793C14.1881 25.3793 15.3409 24.9681 16.2618 24.2154C17.1827 23.4627 17.8151 22.4148 18.0517 21.2492H18.9159C19.7108 21.2492 20.4949 21.0655 21.207 20.7124C21.9192 20.3592 22.54 19.8462 23.021 19.2134C23.5021 18.5806 23.8303 17.8451 23.9801 17.0645C24.1298 16.2838 24.0971 15.4791 23.8844 14.7133H23.8833ZM12.9987 23.3116C12.3611 23.309 11.74 23.1094 11.2202 22.7402C10.7003 22.3711 10.3073 21.8503 10.0948 21.2492H15.9027C15.6901 21.8503 15.2971 22.3711 14.7773 22.7402C14.2575 23.1094 13.6363 23.309 12.9987 23.3116ZM21.3785 17.9647C21.0911 18.3459 20.7188 18.6549 20.2912 18.867C19.8635 19.0791 19.3923 19.1886 18.9149 19.1867H6.79691C6.33367 19.1866 5.87636 19.0825 5.45873 18.8821C5.0411 18.6816 4.67383 18.3899 4.384 18.0285C4.09418 17.6672 3.88922 17.2453 3.78424 16.7941C3.67926 16.3429 3.67695 15.8739 3.77748 15.4217L5.29338 8.59911C5.6588 6.95554 6.56314 5.4813 7.86264 4.41072C9.16214 3.34015 10.7822 2.73469 12.4653 2.6906C14.1485 2.6465 15.798 3.16631 17.1518 4.16737C18.5056 5.16844 19.4858 6.59331 19.9368 8.21549L21.8962 15.265C22.0256 15.7242 22.0462 16.2074 21.9564 16.676C21.8665 17.1447 21.6686 17.5859 21.3785 17.9647Z" fill="url(#paint0_linear_464_1741)"/>
</g>
<defs>
<linearGradient id="paint0_linear_464_1741" x1="12.8565" y1="0.626953" x2="12.8565" y2="25.3793" gradientUnits="userSpaceOnUse">
<stop stop-color="#003049"/>
<stop offset="0.9999" stop-color="#005079"/>
</linearGradient>
<clipPath id="clip0_464_1741">
<rect width="24.7495" height="24.7495" fill="white" transform="translate(0.625 0.625)"/>
</clipPath>
</defs>
</svg>
