<svg width="15" height="20" viewBox="0 0 15 20" fill="none" xmlns="http://www.w3.org/2000/svg">
<path id="Vector" d="M5.9937 16.8029C5.99803 16.8029 6.00215 16.8029 6.00648 16.8029C6.37647 16.7961 6.67082 16.4906 6.6636 16.1206L6.45748 5.03486C6.45068 4.66508 6.14376 4.36785 5.77521 4.37754C5.40522 4.38434 5.11087 4.68981 5.11809 5.05981L5.32421 16.1456C5.33101 16.511 5.62948 16.8029 5.9937 16.8029ZM9.00827 16.8029C9.37249 16.8029 9.67116 16.511 9.67776 16.1456L9.88388 5.05981C9.89089 4.68981 9.59655 4.38434 9.22676 4.37754C8.85862 4.37609 8.5515 4.66508 8.54449 5.03486L8.33836 16.1206C8.33136 16.4906 8.6257 16.7961 8.99549 16.8029C8.99982 16.8029 9.00414 16.8029 9.00827 16.8029ZM13.066 4.37754C12.7002 4.36847 12.3869 4.6558 12.3749 5.02559L11.9626 17.8341C11.9624 17.8413 11.9622 17.8486 11.9622 17.8556C11.9622 18.1196 11.7479 18.3344 11.4846 18.3344H3.51815C3.2541 18.3344 3.03932 18.1196 3.03932 17.8556C3.03932 17.8483 3.03912 17.8411 3.03891 17.8341L2.62666 5.02559C2.61471 4.6558 2.29707 4.36826 1.93553 4.37754C1.56574 4.38949 1.27572 4.69888 1.28747 5.06867L1.69931 17.8677C1.70591 18.8649 2.51927 19.6744 3.51794 19.6744H11.4844C12.4827 19.6744 13.2954 18.8652 13.3018 17.8677L13.7137 5.06888C13.7258 4.69888 13.4358 4.38949 13.066 4.37754ZM14.1006 2.3163H10.9902L10.6886 0.860239C10.6241 0.549198 10.3501 0.326172 10.0325 0.326172H4.97009C4.65245 0.326172 4.37851 0.549198 4.314 0.860239L4.01223 2.3163H0.900372C0.530379 2.3163 0.230469 2.61621 0.230469 2.9862C0.230469 3.35619 0.530379 3.6561 0.900372 3.6561H4.55516H4.5597H10.4427H10.4439H10.445H14.1006C14.4706 3.6561 14.7705 3.35619 14.7705 2.9862C14.7705 2.61621 14.4704 2.3163 14.1006 2.3163ZM5.38089 2.3163L5.51549 1.66598H9.4873L9.6219 2.3163H5.38089Z" fill="#D71212"/>
</svg>
