<svg width="24" height="26" viewBox="0 0 24 26" fill="none" xmlns="http://www.w3.org/2000/svg">
<path d="M5.74975 5.5V1.75C5.74975 1.05965 6.3094 0.5 6.99975 0.5H21.9998C22.6901 0.5 23.2498 1.05965 23.2498 1.75V19.25C23.2498 19.9404 22.6901 20.5 21.9998 20.5H18.2498V24.2489C18.2498 24.9399 17.6874 25.5 16.9912 25.5H2.00832C1.31324 25.5 0.75 24.9443 0.75 24.2489L0.75325 6.75109C0.753375 6.06014 1.3158 5.5 2.01177 5.5H5.74975ZM3.25303 8L3.25024 23H15.7498V8H3.25303ZM8.24975 5.5H18.2498V18H20.7498V3H8.24975V5.5ZM5.75 11.75H13.25V14.25H5.75V11.75ZM5.75 16.75H13.25V19.25H5.75V16.75Z" fill="#145889"/>
</svg>
