<svg width="17" height="14" viewBox="0 0 17 14" fill="none" xmlns="http://www.w3.org/2000/svg">
<path d="M4.46826 13.5098H15.2166V7.12207H4.47612V13.2999C4.47612 13.3805 4.48771 13.4533 4.46826 13.5098ZM9.95943 7.5743H14.7644V13.0011H9.95943V7.5743Z" fill="black"/>
<path d="M13.0479 4.47797C13.1781 4.27159 13.4074 4.13405 13.6694 4.13405C13.726 4.13405 13.7808 4.14106 13.8337 4.15316C13.8353 4.13433 13.8366 4.11551 13.8366 4.09629C13.8366 3.71381 13.5266 3.40381 13.1441 3.40381C12.7617 3.40381 12.4517 3.71381 12.4517 4.09629C12.4517 4.1033 12.4525 4.11008 12.4527 4.11698C12.7068 4.12947 12.9266 4.27102 13.0479 4.47797ZM13.4127 3.59697C13.4439 3.59697 13.4692 3.62224 13.4692 3.6535C13.4692 3.68476 13.4439 3.71003 13.4127 3.71003C13.3814 3.71003 13.3561 3.68476 13.3561 3.6535C13.3561 3.62229 13.3814 3.59697 13.4127 3.59697ZM13.3184 3.74767C13.3184 3.77894 13.2932 3.8042 13.2619 3.8042C13.2306 3.8042 13.2054 3.77894 13.2054 3.74767C13.2054 3.71641 13.2306 3.69115 13.2619 3.69115C13.2932 3.69115 13.3184 3.71647 13.3184 3.74767ZM13.1441 3.49329C13.2143 3.49329 13.2713 3.52919 13.2713 3.57334C13.2713 3.6176 13.2143 3.6535 13.1441 3.6535C13.0739 3.6535 13.017 3.6176 13.017 3.57334C13.017 3.52919 13.0739 3.49329 13.1441 3.49329Z" fill="black"/>
<path d="M14.3236 5.03211C14.3251 5.03211 14.3264 4.9987 14.3264 4.97959C14.3264 4.59712 14.0165 4.28915 13.6339 4.28915C13.2556 4.28915 12.9487 4.59355 12.9421 4.97026C12.9375 4.93725 12.9344 4.90435 12.9344 4.87009C12.9344 4.7905 12.9474 4.71436 12.9708 4.64257C12.8713 4.38202 12.6198 4.19678 12.3243 4.19678C12.1394 4.19678 11.9717 4.26981 11.8476 4.38796C11.7149 4.51413 11.6318 4.68784 11.6318 4.88536C11.6318 4.93719 11.638 4.97563 11.6488 5.03216L14.3236 5.03211ZM13.9024 4.48423C13.9337 4.48423 13.959 4.5095 13.959 4.54076C13.959 4.57202 13.9337 4.59729 13.9024 4.59729C13.8712 4.59729 13.8459 4.57202 13.8459 4.54076C13.8459 4.50955 13.8712 4.48423 13.9024 4.48423ZM13.7517 4.69158C13.7204 4.69158 13.6951 4.66631 13.6951 4.63505C13.6951 4.60379 13.7204 4.57852 13.7517 4.57852C13.7829 4.57852 13.8082 4.60379 13.8082 4.63505C13.8082 4.66631 13.7829 4.69158 13.7517 4.69158ZM13.6339 4.38067C13.7041 4.38067 13.7611 4.41645 13.7611 4.46071C13.7611 4.50497 13.7041 4.54076 13.6339 4.54076C13.5637 4.54076 13.5067 4.50497 13.5067 4.46071C13.5067 4.41645 13.5637 4.38067 13.6339 4.38067ZM12.4421 4.59729C12.4108 4.59729 12.3855 4.57202 12.3855 4.54076C12.3855 4.5095 12.4108 4.48423 12.4421 4.48423C12.4733 4.48423 12.4986 4.5095 12.4986 4.54076C12.4986 4.57202 12.4733 4.59729 12.4421 4.59729ZM12.5928 4.39005C12.6241 4.39005 12.6494 4.41532 12.6494 4.44658C12.6494 4.47784 12.6241 4.50311 12.5928 4.50311C12.5616 4.50311 12.5363 4.47784 12.5363 4.44658C12.5363 4.41537 12.5616 4.39005 12.5928 4.39005ZM12.3243 4.28638C12.3945 4.28638 12.4515 4.32227 12.4515 4.36642C12.4515 4.41068 12.3945 4.44658 12.3243 4.44658C12.2541 4.44658 12.1971 4.41068 12.1971 4.36642C12.1971 4.32227 12.2541 4.28638 12.3243 4.28638Z" fill="black"/>
<path d="M12.9321 6.06825C13.8999 6.06825 14.6845 5.65378 14.6845 5.14502H11.1797C11.1797 5.65378 11.9643 6.06825 12.9321 6.06825Z" fill="black"/>
<path d="M9.67723 5.65422H9.95987V5.99339H10.2425V5.0324H9.95987V5.37157H9.67723V3.68356C9.67723 3.19656 9.28808 2.80029 8.80103 2.80029C8.31398 2.80029 7.92483 3.19656 7.92483 3.68356V4.41058H8.20747V3.68356C8.20747 3.35241 8.46983 3.08294 8.80103 3.08294C9.13218 3.08294 9.39458 3.35241 9.39458 3.68356V6.33256H4.47656V6.89785H16.1781V6.33256H9.67723V5.65422Z" fill="black"/>
<path d="M10.1309 11.3062V12.8324H14.5966V11.3062H10.1309ZM12.7877 11.7584H11.8833V11.5888H12.7877V11.7584Z" fill="black"/>
<path d="M14.5966 9.38446V7.74512H10.1309V9.38446H14.5966ZM11.8833 8.02776H12.7877V8.19735H11.8833V8.02776Z" fill="black"/>
<path d="M14.5966 11.137V9.5542H10.1309V11.137H14.5966ZM12.7877 9.83684V10.0064H11.8833V9.83684H12.7877Z" fill="black"/>
<path d="M1.19828 13.3009C1.19828 13.687 1.51897 13.9998 1.90483 13.9998C2.29081 13.9998 2.6115 13.687 2.6115 13.3009V8.37771C2.66803 8.3287 2.71744 8.25369 2.75424 8.19716H2.89415V13.3009C2.89415 13.687 3.18657 13.9998 3.57244 13.9998C3.95842 13.9998 4.25084 13.687 4.25084 13.3009V7.76109V6.69049V4.40095C4.42043 4.42204 4.62964 4.44426 4.82552 4.44426C5.19736 4.44426 5.58137 4.36421 5.83987 4.04465C6.01817 3.82419 6.10194 3.53516 6.08685 3.16387L5.82218 2.794L5.7981 2.75958L5.80844 2.71848C5.86214 2.49734 5.68685 2.07756 5.61477 1.93442L5.58572 1.87671L5.49584 1.75161L5.44208 1.67688L5.50087 1.63465L5.43948 1.52832L5.31964 1.54206C5.00686 1.80622 4.89663 2.06099 4.98476 2.31662C5.30822 3.25545 5.14931 3.46726 5.14236 3.47586C5.05429 3.58496 4.59584 3.52911 4.34949 3.49909C4.17803 3.47823 4.01608 3.4585 3.86413 3.4585C3.86119 3.4585 3.85836 3.45421 3.85548 3.45426C3.84932 3.45404 3.84321 3.44872 3.83699 3.44872H1.653C1.59912 3.44872 1.5478 3.46359 1.50014 3.4814L1.49748 3.47461C1.27725 3.53945 0.519702 3.90864 0.018516 5.91972C0.0184029 5.92006 0.0182898 5.92096 0.0181768 5.92136C0.0172723 5.92503 0.0168766 5.92905 0.0160287 5.93278C0.0133718 5.9447 0.010828 5.95675 0.00913215 5.96867C-0.0194715 6.1356 0.0193639 6.30434 0.12219 6.44832C0.192795 6.5473 0.300652 6.63328 0.432874 6.70824C0.519419 6.75731 0.616423 6.80168 0.720889 6.84159C0.710601 6.98382 0.701839 7.1373 0.694885 7.304C0.688667 7.45148 0.638356 8.75126 0.773913 8.92943C0.817497 8.98687 0.88584 9.03051 0.980979 9.06267C1.0491 9.08574 1.14169 9.10281 1.19822 9.11496V13.3009H1.19828ZM3.03728 6.76754C3.01077 7.07059 2.76164 7.29269 2.4578 7.29269H2.45616C2.43988 7.29269 2.42343 7.29835 2.40681 7.29688C2.36091 7.29286 2.31365 7.29134 2.26662 7.28665C2.25548 7.24238 2.2444 7.19937 2.23338 7.15448C2.29793 7.16121 2.35995 7.16794 2.41812 7.17297C2.43146 7.17415 2.44474 7.17511 2.45786 7.17506C2.68985 7.17506 2.88725 6.99778 2.90783 6.7624C2.92959 6.51367 2.74548 6.29445 2.49675 6.27263C2.34712 6.25951 2.19601 6.24176 2.0487 6.22091C2.04293 6.17653 2.03779 6.13215 2.03321 6.08784C2.18516 6.10988 2.34508 6.12571 2.50811 6.14001C2.82784 6.16811 3.06526 6.44781 3.03728 6.76754ZM1.19828 5.54075C1.14175 5.55646 1.0794 5.57704 1.03236 5.60248C1.08754 5.4351 1.14175 5.2888 1.19828 5.16144V5.54075ZM0.863964 8.86109C0.730838 8.68596 0.782618 5.9399 1.05842 5.73035C1.29392 5.55126 1.89697 5.63606 1.89697 5.63606C1.88505 7.04787 2.7375 8.65408 2.27888 8.88297C1.82021 9.11191 0.996976 9.03616 0.863964 8.86109Z" fill="black"/>
<path d="M2.74505 0.59082C2.04262 0.59082 1.47314 1.16024 1.47314 1.86272C1.47314 2.56521 2.04262 3.13462 2.74505 3.13462C3.44759 3.13462 4.01695 2.56521 4.01695 1.86272C4.01695 1.16024 3.44759 0.59082 2.74505 0.59082ZM2.74505 2.81812C2.40977 2.81812 2.11611 2.59946 1.95166 2.37335H3.53843C3.37404 2.59946 3.08038 2.81812 2.74505 2.81812Z" fill="black"/>
<path d="M6.51935 3.60157C6.51935 3.60157 6.77028 3.57947 7.07231 3.36206C7.37429 3.14471 7.47497 2.9139 7.47497 2.9139L6.85439 2.05177C6.54371 2.02532 6.11505 1.5918 6.11505 1.5918L5.9064 1.74199L5.69775 1.89219C5.69775 1.89219 5.97248 2.4364 5.89888 2.73939L6.51935 3.60157Z" fill="black"/>
<path d="M5.5905 1.60581L5.88705 1.39242L5.71181 1.21842L5.9875 1.10338L6.60666 1.14131L6.64493 1.05539L6.06183 0.974836L5.89321 0.671049L5.97291 0.538658L5.8278 0.417969L5.33934 1.09462L5.22656 1.45923L5.4884 1.42922L5.5905 1.60581Z" fill="black"/>
<path d="M5.96667 1.41169L5.57129 1.69629L5.67142 1.83539L6.0668 1.55079L5.96667 1.41169Z" fill="black"/>
<path d="M1.24487 5.88773L1.13492 5.86133C1.13215 5.87286 0.861154 7.02532 1.0494 8.12633L1.16087 8.10723C0.976643 7.02967 1.24216 5.89898 1.24487 5.88773Z" fill="black"/>
<path d="M10.5253 0.601582C10.0731 0.56399 9.94561 0.452232 9.90802 0H9.88767C9.85002 0.452232 9.73397 0.56399 9.28174 0.601582V0.621989C9.73397 0.65958 9.85008 0.791406 9.88767 1.24364H9.90802C9.94567 0.791406 10.0731 0.65958 10.5253 0.621989V0.601582Z" fill="black"/>
<path d="M10.6704 3.89962H10.6878C10.7202 3.50392 10.8092 3.37797 11.2049 3.3457V3.32817C10.8092 3.29589 10.7202 3.16475 10.6878 2.76904H10.6704C10.638 3.16475 10.5266 3.29589 10.1309 3.32817V3.3457C10.5266 3.37797 10.638 3.50392 10.6704 3.89962Z" fill="black"/>
<path d="M11.3665 2.42972H11.3899C11.4331 1.92095 11.5987 1.74323 12.1075 1.70004V1.67658C11.5987 1.63345 11.4331 1.46872 11.3899 0.959961H11.3665C11.3233 1.46872 11.1465 1.63345 10.6377 1.67658V1.70004C11.1465 1.74323 11.3233 1.92095 11.3665 2.42972Z" fill="black"/>
</svg>
