<svg width="48" height="48" viewBox="0 0 48 48" fill="none" xmlns="http://www.w3.org/2000/svg">
<g id="Group 1000004690">
<g id="Group 34592">
<g id="Group 34589">
<circle id="Ellipse 211" cx="24" cy="24" r="23.5" fill="white" stroke="url(#paint0_linear_885_9239)"/>
</g>
</g>
<g id="Group">
<path id="Vector" d="M15.875 15.0625C15.875 14.416 16.1318 13.796 16.5889 13.3389C17.046 12.8818 17.666 12.625 18.3125 12.625H29.6875C30.334 12.625 30.954 12.8818 31.4111 13.3389C31.8682 13.796 32.125 14.416 32.125 15.0625C32.125 15.709 31.8682 16.329 31.4111 16.7861C30.954 17.2432 30.334 17.5 29.6875 17.5H18.3125C17.666 17.5 17.046 17.2432 16.5889 16.7861C16.1318 16.329 15.875 15.709 15.875 15.0625ZM32.125 32.9375C32.125 33.584 31.8682 34.204 31.4111 34.6611C30.954 35.1182 30.334 35.375 29.6875 35.375H18.3125C17.7382 35.3761 17.1821 35.1739 16.7426 34.8042C16.3031 34.4345 16.0086 33.9213 15.9112 33.3553C15.8139 32.7893 15.9201 32.2071 16.2109 31.7119C16.5016 31.2166 16.9583 30.8403 17.5 30.6495V28.5809C17.4993 27.7853 17.7322 27.007 18.1699 26.3425C18.6075 25.6781 19.2306 25.1568 19.9619 24.8434L21.9379 24L19.9619 23.1534C19.2311 22.8401 18.6084 22.3193 18.1708 21.6556C17.7331 20.9918 17.4999 20.2142 17.5 19.4191V18.2004C17.7649 18.2724 18.038 18.3101 18.3125 18.3125H29.6875C29.9622 18.3091 30.2352 18.2703 30.5 18.1971V19.4159C30.5014 20.2117 30.2686 20.9904 29.8307 21.655C29.3928 22.3196 28.7692 22.8406 28.0373 23.1534L26.0621 24L28.0373 24.8466C28.7686 25.1591 29.392 25.6797 29.8298 26.3437C30.2677 27.0076 30.5007 27.7856 30.5 28.5809V30.6495C30.9736 30.8169 31.3839 31.1266 31.6748 31.5362C31.9657 31.9457 32.1229 32.4352 32.125 32.9375ZM19.125 28.5809V30.5H28.875V28.5809C28.8751 28.1038 28.7352 27.6372 28.4726 27.2388C28.2101 26.8405 27.8364 26.528 27.3979 26.34L24 24.884L20.6021 26.34C20.1636 26.528 19.7899 26.8405 19.5274 27.2388C19.2648 27.6372 19.1249 28.1038 19.125 28.5809Z" fill="url(#paint1_linear_885_9239)"/>
</g>
</g>
<defs>
<linearGradient id="paint0_linear_885_9239" x1="24" y1="0" x2="24" y2="48" gradientUnits="userSpaceOnUse">
<stop stop-color="#003049"/>
<stop offset="0.9999" stop-color="#005079"/>
</linearGradient>
<linearGradient id="paint1_linear_885_9239" x1="23.9099" y1="12.625" x2="24.5099" y2="35.3639" gradientUnits="userSpaceOnUse">
<stop stop-color="#75C1E9"/>
<stop offset="0.549502" stop-color="#D6839D"/>
<stop offset="1" stop-color="#D5294D"/>
</linearGradient>
</defs>
</svg>
