<svg width="22" height="24" viewBox="0 0 22 24" fill="none" xmlns="http://www.w3.org/2000/svg">
<path d="M22 17.8933V22.6081C22 23.3081 21.5039 23.8889 20.8639 23.9383C20.3293 23.9795 19.8933 24 19.5556 24C8.75527 24 0 14.4488 0 2.66667C0 2.29828 0.0188833 1.82249 0.05665 1.23933C0.101897 0.541173 0.63426 0 1.27583 0H5.5979C5.91162 0 6.17437 0.259227 6.20587 0.599733C6.23415 0.905427 6.26044 1.15085 6.28475 1.33603C6.53198 3.21963 7.03698 5.01248 7.75952 6.67071C7.8755 6.93687 7.79987 7.25545 7.58004 7.42675L4.94212 9.4824C6.54808 13.5748 9.55643 16.8567 13.3078 18.6087L15.1887 15.7359C15.3477 15.4932 15.6432 15.4097 15.8901 15.5376C17.4101 16.3252 19.0533 16.8755 20.7797 17.1445C20.9484 17.1709 21.1719 17.1993 21.4502 17.23C21.7624 17.2644 22 17.5511 22 17.8933Z" fill="url(#paint0_linear_19_238)"/>
<defs>
<linearGradient id="paint0_linear_19_238" x1="11" y1="0" x2="11" y2="24" gradientUnits="userSpaceOnUse">
<stop stop-color="#003049"/>
<stop offset="0.9999" stop-color="#005079"/>
</linearGradient>
</defs>
</svg>
