<svg width="355" height="355" viewBox="0 0 355 355" fill="none" xmlns="http://www.w3.org/2000/svg">
<path d="M177.5 347.396C254.768 347.396 317.405 311.813 317.405 267.919C317.405 224.025 254.768 188.441 177.5 188.441C100.232 188.441 37.5945 224.025 37.5945 267.919C37.5945 311.813 100.232 347.396 177.5 347.396Z" fill="#F5F5F5"/>
<path d="M235.72 318.03L131.286 257.73C130.367 257.201 129.604 256.439 129.074 255.521C128.543 254.603 128.264 253.561 128.264 252.501C128.264 251.441 128.543 250.399 129.074 249.481C129.604 248.563 130.367 247.801 131.286 247.272L141.588 240.775C143.367 239.751 145.383 239.212 147.435 239.212C149.487 239.212 151.504 239.751 153.282 240.775L257.73 301.083C258.649 301.612 259.412 302.374 259.942 303.292C260.473 304.21 260.752 305.252 260.752 306.312C260.752 307.372 260.473 308.414 259.942 309.332C259.412 310.25 258.649 311.012 257.73 311.541L247.428 318.03C245.649 319.06 243.63 319.602 241.574 319.602C239.518 319.602 237.499 319.06 235.72 318.03Z" fill="#E0E0E0"/>
<path d="M76.9285 263.055C89.445 263.055 99.5917 257.228 99.5917 250.041C99.5917 242.853 89.445 237.026 76.9285 237.026C64.412 237.026 54.2653 242.853 54.2653 250.041C54.2653 257.228 64.412 263.055 76.9285 263.055Z" fill="#E6E6E6"/>
<path d="M272.754 266.037L282.694 271.752C282.694 271.752 277.617 255.798 280.322 239.717C281.345 233.639 283.538 230.622 284.305 228.996C285.072 227.37 291.015 217.323 285.725 212.723C280.436 208.122 268.131 217.373 268.799 242.131C269.102 250.234 270.431 258.267 272.754 266.037Z" fill="#2C3A5D"/>
<path opacity="0.5" d="M272.754 266.037L282.694 271.752C282.694 271.752 277.617 255.798 280.322 239.717C281.345 233.639 283.538 230.622 284.305 228.996C285.072 227.37 291.015 217.323 285.725 212.723C280.436 208.122 268.131 217.373 268.799 242.131C269.102 250.234 270.431 258.267 272.754 266.037Z" fill="black"/>
<path d="M277.376 269.047C277.303 269.048 277.232 269.027 277.173 268.986C277.113 268.946 277.067 268.887 277.042 268.819C277.007 268.713 273.208 258.333 273.329 241.648C273.449 224.963 282.218 215.903 282.303 215.818C282.336 215.785 282.375 215.758 282.419 215.74C282.462 215.722 282.508 215.713 282.555 215.713C282.602 215.713 282.648 215.722 282.692 215.74C282.735 215.758 282.774 215.785 282.807 215.818C282.84 215.851 282.867 215.89 282.885 215.933C282.903 215.977 282.912 216.023 282.912 216.07C282.912 216.117 282.903 216.163 282.885 216.206C282.867 216.25 282.84 216.289 282.807 216.322C282.722 216.407 274.159 225.197 274.039 241.655C273.918 258.113 277.667 268.479 277.709 268.578C277.741 268.666 277.737 268.764 277.697 268.849C277.657 268.934 277.585 269 277.496 269.032C277.457 269.044 277.416 269.049 277.376 269.047Z" fill="white"/>
<path d="M276.9 268.479L290.489 276.289C291.905 277.126 293.585 277.398 295.193 277.052C296.801 276.706 298.219 275.767 299.166 274.421C300.065 273.022 300.445 271.351 300.238 269.7C299.584 262.643 296.517 261.017 300.273 257.871C304.029 254.726 305.009 254.506 304.796 251.481C304.583 248.457 302.517 247.136 301.537 245.943C300.557 244.751 297.845 242.251 299.691 238.559C301.537 234.867 304.057 231.296 300.238 229.663C297.959 228.683 294.16 229.99 291.661 232.702C289.162 235.414 287.103 237.367 284.71 238.02C282.317 238.673 277.333 238.779 277.546 242.905C277.759 247.03 278.852 248.443 277.873 250.281C276.027 253.718 267.997 255.67 276.9 268.479Z" fill="#2C3A5D"/>
<path d="M283.617 272.682C283.528 272.679 283.444 272.645 283.378 272.585C283.313 272.525 283.272 272.443 283.262 272.355C283.262 272.114 281.174 247.747 297.93 231.53C297.999 231.473 298.087 231.445 298.177 231.45C298.266 231.455 298.35 231.494 298.412 231.559C298.474 231.623 298.51 231.709 298.511 231.799C298.513 231.888 298.48 231.975 298.42 232.042C281.905 248.024 283.95 272.05 283.972 272.292C283.979 272.385 283.95 272.477 283.891 272.549C283.831 272.621 283.745 272.666 283.652 272.675L283.617 272.682Z" fill="white"/>
<path d="M286.307 251.709C286.218 251.709 286.132 251.676 286.066 251.615C286 251.555 285.96 251.472 285.952 251.382C285.804 249.494 285.272 247.656 284.389 245.98C283.507 244.304 282.292 242.825 280.819 241.634C280.781 241.607 280.748 241.573 280.723 241.533C280.698 241.494 280.681 241.45 280.673 241.403C280.665 241.357 280.666 241.31 280.677 241.264C280.687 241.218 280.707 241.175 280.734 241.137C280.76 241.099 280.794 241.066 280.833 241.041C280.872 241.016 280.915 240.999 280.961 240.991C281.007 240.984 281.053 240.985 281.099 240.995C281.144 241.006 281.186 241.025 281.224 241.052C282.793 242.297 284.087 243.854 285.024 245.625C285.96 247.396 286.518 249.342 286.662 251.34C286.67 251.435 286.641 251.529 286.579 251.602C286.518 251.675 286.431 251.721 286.336 251.73L286.307 251.709Z" fill="white"/>
<path d="M285.15 255.89C285.064 255.891 284.981 255.861 284.916 255.805C284.845 255.742 284.802 255.654 284.796 255.56C284.789 255.466 284.819 255.373 284.88 255.301C285.051 255.102 289.247 250.473 299.08 251.701C299.174 251.714 299.258 251.762 299.315 251.837C299.372 251.911 299.398 252.006 299.386 252.099C299.373 252.192 299.325 252.278 299.25 252.336C299.176 252.394 299.082 252.421 298.988 252.411C289.545 251.226 285.448 255.727 285.406 255.769C285.373 255.806 285.334 255.835 285.29 255.856C285.246 255.877 285.199 255.888 285.15 255.89Z" fill="white"/>
<path d="M232.539 310.824L140.694 257.794C134.211 254.052 128.957 244.013 128.957 235.372V38.7023C128.957 30.0616 134.211 26.0927 140.694 29.8344L232.539 82.8643C239.021 86.606 244.275 96.6454 244.275 105.286V301.956C244.275 310.59 239.021 314.566 232.539 310.824Z" fill="#455A64"/>
<path d="M243.118 76.6803L151.266 23.6504C148.497 22.0529 145.955 21.8683 143.945 22.8481C143.699 22.9712 143.462 23.1112 143.235 23.267L132.94 29.2523C135.014 28.0098 137.726 28.1021 140.701 29.8203L232.546 82.8502C239.029 86.5919 244.283 96.6313 244.283 105.272V301.942C244.283 306.514 242.813 309.752 240.47 311.286L250.63 305.371C253.222 303.994 254.89 300.621 254.89 295.786V99.1163C254.89 90.4614 249.601 80.422 243.118 76.6803Z" fill="#37474F"/>
<path d="M244.275 105.272V301.942C244.275 306.514 242.806 309.752 240.463 311.285L250.63 305.371C253.222 303.994 254.89 300.621 254.89 295.786V99.1162L244.311 105.258L244.275 105.272Z" fill="#263238"/>
<path d="M254.855 114.374L244.275 120.48V125.251L254.855 119.138V114.374Z" fill="#37474F"/>
<path d="M250.218 146.104C249.274 146.651 248.507 146.068 248.507 144.812V134.552C248.517 133.911 248.676 133.281 248.974 132.712C249.271 132.144 249.697 131.653 250.218 131.279C251.163 130.732 251.929 131.279 251.929 132.571V142.831C251.92 143.472 251.76 144.102 251.463 144.671C251.166 145.239 250.739 145.73 250.218 146.104Z" fill="#37474F"/>
<path d="M248.5 144.84V134.553C248.51 133.911 248.669 133.281 248.967 132.713C249.264 132.144 249.69 131.653 250.211 131.279C250.367 131.17 250.548 131.104 250.738 131.087C250.927 131.069 251.117 131.101 251.29 131.18L250.005 130.52C249.829 130.435 249.634 130.398 249.44 130.413C249.245 130.428 249.058 130.494 248.898 130.605C248.376 130.979 247.949 131.47 247.651 132.038C247.352 132.606 247.191 133.236 247.179 133.878V144.13C247.153 144.389 247.192 144.651 247.294 144.891C247.396 145.13 247.557 145.34 247.762 145.501L249.104 146.211C248.89 146.057 248.721 145.849 248.615 145.608C248.509 145.367 248.469 145.102 248.5 144.84Z" fill="#455A64"/>
<path d="M250.218 170.933C249.274 171.48 248.507 170.933 248.507 169.641V159.381C248.517 158.74 248.677 158.11 248.974 157.542C249.271 156.973 249.697 156.482 250.218 156.108C251.163 155.561 251.929 156.108 251.929 157.407V167.66C251.921 168.301 251.762 168.932 251.464 169.501C251.167 170.069 250.74 170.56 250.218 170.933Z" fill="#37474F"/>
<path d="M248.5 169.64V159.381C248.51 158.739 248.67 158.109 248.967 157.541C249.264 156.973 249.69 156.482 250.211 156.108C250.368 156.001 250.549 155.935 250.738 155.918C250.927 155.901 251.117 155.932 251.29 156.008L250.005 155.341C249.83 155.252 249.635 155.214 249.44 155.229C249.244 155.244 249.057 155.312 248.898 155.426C248.375 155.799 247.947 156.289 247.648 156.858C247.35 157.426 247.189 158.057 247.179 158.699V168.98C247.152 169.239 247.191 169.501 247.293 169.74C247.395 169.98 247.556 170.19 247.762 170.35L249.104 171.06C248.881 170.903 248.707 170.687 248.6 170.436C248.494 170.185 248.459 169.91 248.5 169.64Z" fill="#455A64"/>
<path d="M229.33 88.381L139.075 36.2528C138.698 36.0361 138.271 35.9217 137.837 35.9209C137.402 35.9201 136.975 36.0329 136.597 36.2482C136.22 36.4635 135.905 36.7738 135.685 37.1482C135.464 37.5227 135.345 37.9483 135.34 38.3828V235.372C135.34 241.947 140.005 250.02 145.699 253.307L233.739 304.164C234.157 304.404 234.63 304.531 235.112 304.53C235.593 304.53 236.067 304.403 236.484 304.162C236.901 303.921 237.247 303.575 237.488 303.158C237.729 302.741 237.857 302.267 237.857 301.786V103.17C237.893 97.7459 234.044 91.0932 229.33 88.381Z" fill="#2C3A5D"/>
<path opacity="0.9" d="M229.33 88.381L139.075 36.2528C138.698 36.0361 138.271 35.9217 137.837 35.9209C137.402 35.9201 136.975 36.0329 136.597 36.2482C136.22 36.4635 135.905 36.7738 135.685 37.1482C135.464 37.5227 135.345 37.9483 135.34 38.3828V235.372C135.34 241.947 140.005 250.02 145.699 253.307L233.739 304.164C234.157 304.404 234.63 304.531 235.112 304.53C235.593 304.53 236.067 304.403 236.484 304.162C236.901 303.921 237.247 303.575 237.488 303.158C237.729 302.741 237.857 302.267 237.857 301.786V103.17C237.893 97.7459 234.044 91.0932 229.33 88.381Z" fill="white"/>
<path d="M166.069 49.8633L167.468 55.7492L197.387 73.0022L202.556 70.2474L166.069 49.8633Z" fill="#455A64"/>
<path d="M174.866 55.5506C174.866 56.5304 174.156 56.9209 173.332 56.4381C172.89 56.1446 172.523 55.7514 172.26 55.2902C171.998 54.8291 171.847 54.3127 171.82 53.7827C171.82 52.81 172.53 52.4124 173.354 52.9023C173.796 53.1943 174.163 53.5861 174.425 54.0462C174.688 54.5062 174.839 55.0215 174.866 55.5506Z" fill="#263238"/>
<path d="M195.023 68.0116C194.859 68.0103 194.698 67.9689 194.554 67.8909L179.275 59.3709C179.059 59.2442 178.902 59.0382 178.836 58.7969C178.77 58.5555 178.801 58.298 178.922 58.0793C179.044 57.8605 179.246 57.6979 179.486 57.6262C179.725 57.5545 179.983 57.5793 180.205 57.6953L195.491 66.2153C195.677 66.3186 195.823 66.4807 195.907 66.6762C195.991 66.8717 196.007 67.0894 195.953 67.2951C195.9 67.5008 195.779 67.6828 195.611 67.8125C195.442 67.9423 195.235 68.0123 195.023 68.0116Z" fill="#263238"/>
<path d="M154.269 77.2486C153.339 76.709 152.664 77.1776 152.664 78.3633C152.664 78.9562 152.811 79.54 153.091 80.0627C153.371 80.5854 153.775 81.0308 154.269 81.3595C154.533 81.5199 154.836 81.6048 155.146 81.6048C155.455 81.6048 155.758 81.5199 156.022 81.3595L157.506 84.0433C156.984 84.3313 156.393 84.4686 155.797 84.4397C155.201 84.4109 154.626 84.2171 154.134 83.88C152.928 83.1424 151.923 82.119 151.207 80.9005C150.492 79.6819 150.087 78.3057 150.03 76.8936C150.03 74.2595 151.798 73.3436 154.233 74.7636C155.609 75.6492 156.735 76.871 157.506 78.3136L156.022 79.4922C155.657 78.5965 155.05 77.8199 154.269 77.2486Z" fill="#2C3A5D"/>
<path d="M166.048 86.1443C166.048 88.7997 164.251 89.6943 161.788 88.2743C160.548 87.5333 159.51 86.4975 158.767 85.2588C158.024 84.0202 157.598 82.6171 157.528 81.1743C157.528 78.5189 159.324 77.6243 161.788 79.0443C163.031 79.782 164.071 80.817 164.814 82.0564C165.558 83.2957 165.982 84.7005 166.048 86.1443ZM160.162 82.7576C160.174 83.3672 160.331 83.9652 160.62 84.5021C160.909 85.0391 161.321 85.4998 161.823 85.8461C162.704 86.3573 163.414 85.8461 163.414 84.6391C163.411 84.0433 163.265 83.4567 162.989 82.9291C162.712 82.4014 162.312 81.9481 161.823 81.6074C160.929 81.0891 160.162 81.5293 160.162 82.7576Z" fill="#2C3A5D"/>
<path d="M168.909 83.3262L171.976 89.7162V85.1154L174.298 86.4573V95.4104L172.168 94.175L169.115 87.8418V92.4142L166.779 91.0652V82.0908L168.909 83.3262Z" fill="#2C3A5D"/>
<path d="M181.888 90.8167V93.1597L179.673 91.8817V98.4989L177.11 97.015V90.3978L174.909 89.1269V86.791L181.888 90.8167Z" fill="#2C3A5D"/>
<path d="M186.886 101.395L183.975 99.7123L183.578 100.749L180.951 99.2295L184.224 92.165L186.858 93.6844L190.01 104.462L187.277 102.886L186.886 101.395ZM186.254 98.91L185.459 95.8499L184.643 97.9799L186.254 98.91Z" fill="#2C3A5D"/>
<path d="M194.078 100.231C193.148 99.6985 192.474 100.16 192.474 101.353C192.475 101.945 192.622 102.529 192.902 103.051C193.182 103.574 193.586 104.019 194.078 104.349C194.345 104.508 194.649 104.592 194.959 104.592C195.269 104.592 195.573 104.508 195.839 104.349L197.323 107.033C196.799 107.318 196.206 107.453 195.611 107.424C195.015 107.395 194.438 107.203 193.944 106.869C192.737 106.131 191.731 105.107 191.015 103.887C190.3 102.667 189.896 101.289 189.84 99.876C189.84 97.2419 191.615 96.326 194.043 97.746C195.416 98.6359 196.544 99.8566 197.323 101.296L195.839 102.467C195.465 101.577 194.857 100.804 194.078 100.231Z" fill="#2C3A5D"/>
<path d="M204.324 103.774V106.11L202.109 104.832V111.471L199.545 109.987V103.369L197.345 102.099V99.7627L204.324 103.774Z" fill="#2C3A5D"/>
<path d="M211.9 114.764C212.531 115.127 213.014 114.843 213.014 113.955V108.793L215.584 110.27V115.432C215.584 117.81 214.164 118.52 211.892 117.221C210.798 116.613 209.878 115.734 209.22 114.669C208.562 113.604 208.189 112.387 208.136 111.136V105.975L210.707 107.459V112.62C210.717 113.048 210.83 113.466 211.038 113.84C211.246 114.213 211.542 114.531 211.9 114.764Z" fill="#2C3A5D"/>
<path d="M219.724 114.793C219.433 114.63 219.248 114.622 219.248 114.892C219.248 116.014 223.26 117.633 223.26 120.878C223.26 122.866 221.747 122.873 220.001 121.864C218.465 120.924 217.143 119.674 216.117 118.194L217.068 116.518C217.849 117.727 218.851 118.777 220.022 119.614C220.398 119.834 220.64 119.834 220.64 119.514C220.64 118.35 216.621 116.802 216.621 113.657C216.621 111.868 217.927 111.527 219.944 112.663C221.243 113.449 222.386 114.467 223.316 115.666L222.386 117.384C221.618 116.406 220.723 115.534 219.724 114.793Z" fill="#2C3A5D"/>
<path d="M141.354 121.368C144.235 117.829 145.685 113.34 145.418 108.785C145.152 104.23 143.187 99.9409 139.913 96.763C136.64 93.5851 132.293 91.7497 127.733 91.6188C123.172 91.488 118.728 93.0712 115.277 96.0561C111.826 99.041 109.619 103.211 109.092 107.743C108.564 112.275 109.755 116.84 112.428 120.538C115.101 124.235 119.063 126.797 123.532 127.717C128.001 128.636 132.652 127.848 136.569 125.507L145.458 129.369L141.354 121.368Z" fill="#2C3A5D"/>
<path opacity="0.4" d="M141.354 121.368C144.235 117.829 145.685 113.34 145.418 108.785C145.152 104.23 143.187 99.9409 139.913 96.763C136.64 93.5851 132.293 91.7497 127.733 91.6188C123.172 91.488 118.728 93.0712 115.277 96.0561C111.826 99.041 109.619 103.211 109.092 107.743C108.564 112.275 109.755 116.84 112.428 120.538C115.101 124.235 119.063 126.797 123.532 127.717C128.001 128.636 132.652 127.848 136.569 125.507L145.458 129.369L141.354 121.368Z" fill="black"/>
<path d="M120.451 108.872C120.451 108.595 120.253 108.439 119.891 108.439C119.051 108.549 118.266 108.919 117.647 109.497L116.639 107.537C117.7 106.739 118.982 106.287 120.309 106.245C122.013 106.245 123.306 107.14 123.306 108.475C123.306 109.426 122.596 110.342 121.687 111.258L120.416 112.514H123.419V114.602H116.965V112.891L119.841 109.916C120.151 109.642 120.364 109.276 120.451 108.872Z" fill="white"/>
<path d="M128.673 106.365L126.714 111.065H127.516V109.482H129.987V111.065H130.924V113.004H129.987V114.601H127.516V113.004H124.001V111.243L126.131 106.365H128.673Z" fill="white"/>
<path d="M138.549 110.504V114.601H135.908V111.264C135.923 111.155 135.915 111.045 135.884 110.94C135.853 110.834 135.799 110.737 135.727 110.654C135.655 110.572 135.566 110.505 135.467 110.46C135.367 110.414 135.258 110.391 135.149 110.391C134.63 110.391 134.304 110.795 134.304 111.42V114.601H131.662V105.896H134.304V109.099C134.51 108.772 134.798 108.505 135.139 108.323C135.48 108.141 135.863 108.051 136.249 108.062C136.566 108.054 136.88 108.113 137.173 108.234C137.465 108.356 137.728 108.538 137.945 108.769C138.162 108.999 138.328 109.273 138.433 109.572C138.537 109.871 138.576 110.189 138.549 110.504Z" fill="white"/>
<path d="M224.672 176.478V264.696C224.674 265.693 224.412 266.674 223.915 267.538C223.417 268.403 222.7 269.121 221.836 269.621C220.972 270.12 219.992 270.384 218.994 270.384C217.997 270.384 217.016 270.122 216.152 269.623L168.639 242.189L160.219 237.332C157.319 235.656 154.91 233.247 153.233 230.348C151.556 227.449 150.67 224.16 150.662 220.81V132.586C150.661 131.588 150.922 130.608 151.42 129.743C151.918 128.878 152.635 128.16 153.498 127.661C154.362 127.161 155.342 126.898 156.34 126.897C157.338 126.897 158.318 127.16 159.182 127.658L215.13 159.956C218.031 161.63 220.44 164.038 222.115 166.939C223.79 169.839 224.672 173.129 224.672 176.478Z" fill="#2C3A5D"/>
<path opacity="0.5" d="M224.672 176.478V264.696C224.674 265.693 224.412 266.674 223.915 267.538C223.417 268.403 222.7 269.121 221.836 269.621C220.972 270.12 219.992 270.384 218.994 270.384C217.997 270.384 217.016 270.122 216.152 269.623L168.639 242.189L160.219 237.332C157.319 235.656 154.91 233.247 153.233 230.348C151.556 227.449 150.67 224.16 150.662 220.81V132.586C150.661 131.588 150.922 130.608 151.42 129.743C151.918 128.878 152.635 128.16 153.498 127.661C154.362 127.161 155.342 126.898 156.34 126.897C157.338 126.897 158.318 127.16 159.182 127.658L215.13 159.956C218.031 161.63 220.44 164.038 222.115 166.939C223.79 169.839 224.672 173.129 224.672 176.478Z" fill="white"/>
<path d="M197.302 228.677C197.302 228.677 206.198 243.431 199.773 260.066L168.618 242.188L197.302 228.677Z" fill="#263238"/>
<path d="M211.49 162.389C212.163 156.921 208.276 151.943 202.808 151.269C197.34 150.596 192.361 154.483 191.688 159.951C191.015 165.419 194.902 170.397 200.37 171.071C205.838 171.744 210.816 167.857 211.49 162.389Z" fill="#263238"/>
<path d="M201.64 133.189C201.64 133.189 204.7 128.219 205.637 128.581C206.575 128.943 205.027 133.679 205.027 133.679C205.027 133.679 209.656 134.645 208.797 135.809C207.938 136.974 202.279 136.697 202.279 136.697L201.64 133.189Z" fill="#263238"/>
<path d="M203.77 145.997C201.64 162.001 188.15 162.001 188.15 162.001L159.892 149.562C159.892 149.562 157.762 147.694 157.109 143.406C156.858 141.649 156.858 139.866 157.109 138.109C157.109 138.109 157.109 138.074 157.109 138.06C158.011 131.329 163.044 124.094 174.007 121.872C176.409 121.387 178.855 121.149 181.306 121.162C182.491 121.157 183.676 121.217 184.856 121.339C193.376 122.177 199.347 126.153 202.194 132.337C202.834 133.733 203.311 135.198 203.614 136.704C204.192 139.77 204.244 142.913 203.77 145.997Z" fill="#263238"/>
<path d="M135.929 176.954C135.929 176.954 125.897 176.606 122.035 186.382C122.035 186.382 126.295 189.258 131.882 186.382C137.47 183.507 135.929 176.954 135.929 176.954Z" fill="#2C3A5D"/>
<path opacity="0.5" d="M135.929 176.954C135.929 176.954 125.897 176.606 122.035 186.382C122.035 186.382 126.295 189.258 131.882 186.382C137.47 183.507 135.929 176.954 135.929 176.954Z" fill="black"/>
<path d="M135.646 181.661C135.646 181.661 132.806 169.321 131.307 169.172C129.809 169.023 129.518 172.935 129.639 175.143L126.089 167.504C125.976 167.266 125.816 167.055 125.619 166.881C125.421 166.708 125.19 166.577 124.94 166.497C124.69 166.416 124.426 166.388 124.164 166.413C123.903 166.439 123.649 166.517 123.419 166.645C119.869 168.597 113.643 174.533 126.771 189.208L135.646 181.661Z" fill="#945959"/>
<path d="M171.998 173.127L169.868 172.85C167.721 172.565 165.537 172.857 163.541 173.696C161.544 174.534 159.807 175.889 158.508 177.621L145.834 194.491L135.894 176.954C135.894 176.954 134.701 188.882 121.999 186.383L135.638 209.337C136.502 210.79 137.703 212.013 139.14 212.902C140.578 213.791 142.209 214.32 143.894 214.444C145.58 214.567 147.271 214.281 148.822 213.611C150.374 212.941 151.741 211.906 152.806 210.594L164.479 196.244L171.998 173.127Z" fill="#2C3A5D"/>
<path d="M199.049 212.496C196.209 219.695 195.896 221.101 197.629 224.701C198.835 227.359 199.786 230.126 200.469 232.965C200.469 232.965 187.305 247.719 168.568 242.195L160.148 237.339C158.396 236.329 156.819 235.044 155.476 233.533L158.039 214.42C158.168 213.414 158.066 212.392 157.741 211.431L155.05 203.543C153.737 199.69 153.541 195.544 154.486 191.585C155.431 187.626 157.478 184.015 160.389 181.171L169.434 172.331L193.191 175.37L196.741 176.385C199.065 177.057 201.069 178.546 202.383 180.576C203.698 182.607 204.236 185.044 203.898 187.44C202.733 195.818 200.831 207.973 199.049 212.496Z" fill="#2C3A5D"/>
<path opacity="0.5" d="M199.049 212.496C196.209 219.695 195.896 221.101 197.629 224.701C198.835 227.359 199.786 230.126 200.469 232.965C200.469 232.965 187.305 247.719 168.568 242.195L160.148 237.339C158.396 236.329 156.819 235.044 155.476 233.533L158.039 214.42C158.168 213.414 158.066 212.392 157.741 211.431L155.05 203.543C153.737 199.69 153.541 195.544 154.486 191.585C155.431 187.626 157.478 184.015 160.389 181.171L169.434 172.331L193.191 175.37L196.741 176.385C199.065 177.057 201.069 178.546 202.383 180.576C203.698 182.607 204.236 185.044 203.898 187.44C202.733 195.818 200.831 207.973 199.049 212.496Z" fill="black"/>
<path d="M184.721 190.99L179.964 186.936C179.46 186.505 178.852 186.213 178.201 186.089C177.55 185.964 176.878 186.012 176.25 186.226L170.499 188.207L169.726 184.984C169.605 184.482 169.384 184.01 169.076 183.597C168.767 183.183 168.379 182.836 167.933 182.577C167.487 182.317 166.993 182.151 166.481 182.087C165.969 182.024 165.45 182.065 164.954 182.208L162.462 182.918L166.68 174.838C168.057 172.206 170.178 170.038 172.779 168.604L174.433 167.695L188.1 168.405C188.1 168.405 193.191 170.535 193.191 175.328L184.721 190.948" fill="#2C3A5D"/>
<path d="M188.157 174.461L174.454 185.14V151.138H188.157V174.461Z" fill="#945959"/>
<path d="M174.667 171.657L170.499 188.236L188.1 174.462L174.667 171.657Z" fill="#945959"/>
<path d="M174.454 169.193C177.501 168.062 180.286 166.323 182.641 164.082C184.995 161.841 186.87 159.145 188.15 156.157V151.138H174.447L174.454 169.193Z" fill="#703838"/>
<path d="M177.408 125.94C172.21 125.94 161.163 128.837 159.885 142.441C158.607 156.044 159.842 166.581 166.857 167.603C173.872 168.626 190.173 163.535 192.36 145.927C194.547 128.319 182.47 125.94 177.408 125.94Z" fill="#945959"/>
<path d="M169.229 148.198V156.214L164.528 154.773L169.229 148.198Z" fill="#703838"/>
<path d="M174.454 151.216C175.356 151.216 176.087 150.485 176.087 149.583C176.087 148.681 175.356 147.95 174.454 147.95C173.552 147.95 172.821 148.681 172.821 149.583C172.821 150.485 173.552 151.216 174.454 151.216Z" fill="#263238"/>
<path d="M165.338 148.447C165.336 148.769 165.239 149.084 165.059 149.352C164.879 149.62 164.623 149.828 164.325 149.95C164.026 150.073 163.698 150.104 163.382 150.04C163.065 149.977 162.775 149.82 162.548 149.592C162.32 149.363 162.165 149.072 162.103 148.756C162.04 148.439 162.073 148.111 162.197 147.813C162.32 147.515 162.53 147.26 162.798 147.081C163.067 146.902 163.382 146.807 163.705 146.807C163.92 146.807 164.133 146.849 164.331 146.932C164.53 147.014 164.71 147.135 164.862 147.287C165.014 147.44 165.134 147.621 165.215 147.82C165.297 148.019 165.339 148.232 165.338 148.447Z" fill="#263238"/>
<path d="M161.71 145.039L164.905 143.143C164.905 143.143 163.683 141.872 162.462 142.632C161.241 143.391 161.71 145.039 161.71 145.039Z" fill="#263238"/>
<path d="M167.02 159.467C168.576 159.58 170.125 159.165 171.415 158.288C171.415 158.288 171.721 160.61 169.775 161.05C167.83 161.49 167.02 159.467 167.02 159.467Z" fill="#703838"/>
<path d="M164.23 130.569C164.23 130.569 166.183 149.349 191.721 149.938C191.721 149.938 199.439 131.272 184.188 125.209C168.937 119.145 164.23 130.569 164.23 130.569Z" fill="#263238"/>
<path d="M199.24 147.127L196.102 145.309C194.909 144.599 193.262 144.699 191.437 145.749C187.816 147.837 184.877 152.928 184.877 157.109C184.877 159.204 185.587 160.659 186.808 161.369L189.89 163.144L190.067 163.244L190.174 163.308C191.338 163.876 192.893 163.741 194.604 162.754C198.225 160.624 201.164 155.576 201.164 151.394C201.143 149.278 200.412 147.816 199.24 147.127Z" fill="#2C3A5D"/>
<path d="M199.215 157.82C201.776 153.385 201.776 148.591 199.215 147.113C196.655 145.635 192.504 148.032 189.943 152.467C187.382 156.902 187.382 161.695 189.943 163.174C192.503 164.652 196.655 162.255 199.215 157.82Z" fill="#2C3A5D"/>
<path opacity="0.5" d="M199.215 157.82C201.776 153.385 201.776 148.591 199.215 147.113C196.655 145.635 192.504 148.032 189.943 152.467C187.382 156.902 187.382 161.695 189.943 163.174C192.503 164.652 196.655 162.255 199.215 157.82Z" fill="black"/>
<path d="M200.497 151.067L198.367 149.825C197.558 149.342 196.429 149.406 195.179 150.123C193.874 150.976 192.787 152.124 192.008 153.475C191.228 154.825 190.777 156.34 190.692 157.898C190.692 159.318 191.196 160.333 192.012 160.801L194.142 162.016C194.18 162.043 194.221 162.067 194.263 162.087L194.334 162.129C194.833 162.319 195.371 162.383 195.901 162.316C196.431 162.249 196.936 162.053 197.373 161.746C198.677 160.893 199.763 159.746 200.543 158.397C201.322 157.048 201.773 155.534 201.86 153.978C201.803 152.537 201.306 151.536 200.497 151.067Z" fill="#2C3A5D"/>
<path d="M201.803 153.964C201.717 155.52 201.265 157.033 200.486 158.382C199.706 159.732 198.621 160.879 197.316 161.731C194.831 163.151 192.822 162.001 192.822 159.14C192.906 157.582 193.357 156.067 194.138 154.717C194.919 153.367 196.008 152.221 197.316 151.372C199.794 149.938 201.803 151.095 201.803 153.964Z" fill="#2C3A5D"/>
<path opacity="0.3" d="M201.803 153.964C201.717 155.52 201.265 157.033 200.486 158.382C199.706 159.732 198.621 160.879 197.316 161.731C194.831 163.151 192.822 162.001 192.822 159.14C192.906 157.582 193.357 156.067 194.138 154.717C194.919 153.367 196.008 152.221 197.316 151.372C199.794 149.938 201.803 151.095 201.803 153.964Z" fill="black"/>
<path d="M189.492 122.276C187.456 120.704 184.964 119.839 182.392 119.813H181.76C179.156 119.785 176.556 120.023 174 120.523C174.468 120.523 174.937 120.523 175.42 120.523H174V121.843H175.32C179.872 121.998 184.184 123.917 187.347 127.193C190.51 130.47 192.274 134.848 192.268 139.402V144.989C192.268 145.21 192.314 145.429 192.404 145.631C192.493 145.832 192.624 146.013 192.788 146.161C192.952 146.309 193.146 146.421 193.356 146.489C193.566 146.558 193.788 146.581 194.008 146.558H194.171L195.591 146.118C195.496 146.148 195.399 146.167 195.3 146.175C195.723 146.118 196.11 145.906 196.388 145.582C196.666 145.257 196.814 144.841 196.805 144.414V139.231C196.791 129.852 192.737 124.811 189.492 122.276Z" fill="#2C3A5D"/>
<path d="M180.553 167.212C179.967 167.212 179.389 167.086 178.856 166.843L174.419 164.791C174.349 164.766 174.286 164.727 174.232 164.677C174.179 164.626 174.136 164.565 174.107 164.497C174.079 164.429 174.064 164.356 174.065 164.282C174.066 164.209 174.083 164.136 174.113 164.069C174.144 164.002 174.188 163.942 174.243 163.893C174.298 163.843 174.363 163.806 174.433 163.783C174.503 163.761 174.577 163.753 174.65 163.76C174.723 163.767 174.795 163.789 174.859 163.826L179.296 165.877C179.862 166.141 180.496 166.22 181.11 166.106C181.723 165.991 182.286 165.688 182.719 165.238L186.979 160.836C187.078 160.737 187.214 160.681 187.355 160.681C187.496 160.681 187.631 160.737 187.731 160.836C187.829 160.937 187.884 161.072 187.884 161.213C187.884 161.353 187.829 161.488 187.731 161.589L183.471 165.991C183.092 166.38 182.638 166.689 182.137 166.899C181.635 167.109 181.097 167.215 180.553 167.212Z" fill="#2C3A5D"/>
<path opacity="0.5" d="M180.553 167.212C179.967 167.212 179.389 167.086 178.856 166.843L174.419 164.791C174.349 164.766 174.286 164.727 174.232 164.677C174.179 164.626 174.136 164.565 174.107 164.497C174.079 164.429 174.064 164.356 174.065 164.282C174.066 164.209 174.083 164.136 174.113 164.069C174.144 164.002 174.188 163.942 174.243 163.893C174.298 163.843 174.363 163.806 174.433 163.783C174.503 163.761 174.577 163.753 174.65 163.76C174.723 163.767 174.795 163.789 174.859 163.826L179.296 165.877C179.862 166.141 180.496 166.22 181.11 166.106C181.723 165.991 182.286 165.688 182.719 165.238L186.979 160.836C187.078 160.737 187.214 160.681 187.355 160.681C187.496 160.681 187.631 160.737 187.731 160.836C187.829 160.937 187.884 161.072 187.884 161.213C187.884 161.353 187.829 161.488 187.731 161.589L183.471 165.991C183.092 166.38 182.638 166.689 182.137 166.899C181.635 167.109 181.097 167.215 180.553 167.212Z" fill="black"/>
<path d="M175.583 163.301C175.583 163.711 175.461 164.112 175.234 164.453C175.006 164.793 174.682 165.059 174.303 165.216C173.924 165.373 173.508 165.414 173.105 165.334C172.703 165.254 172.334 165.057 172.044 164.767C171.754 164.477 171.556 164.107 171.476 163.705C171.396 163.303 171.437 162.886 171.594 162.507C171.751 162.129 172.017 161.805 172.358 161.577C172.699 161.349 173.1 161.228 173.51 161.228C174.06 161.228 174.587 161.446 174.976 161.835C175.365 162.224 175.583 162.751 175.583 163.301Z" fill="#2C3A5D"/>
<path opacity="0.5" d="M175.583 163.301C175.583 163.711 175.461 164.112 175.234 164.453C175.006 164.793 174.682 165.059 174.303 165.216C173.924 165.373 173.508 165.414 173.105 165.334C172.703 165.254 172.334 165.057 172.044 164.767C171.754 164.477 171.556 164.107 171.476 163.705C171.396 163.303 171.437 162.886 171.594 162.507C171.751 162.129 172.017 161.805 172.358 161.577C172.699 161.349 173.1 161.228 173.51 161.228C174.06 161.228 174.587 161.446 174.976 161.835C175.365 162.224 175.583 162.751 175.583 163.301Z" fill="black"/>
<path d="M196.791 139.231V144.414C196.8 144.841 196.651 145.257 196.374 145.582C196.096 145.906 195.709 146.118 195.285 146.175C195.052 146.2 194.815 146.175 194.591 146.103C194.368 146.03 194.162 145.911 193.987 145.754C193.812 145.597 193.672 145.404 193.577 145.189C193.481 144.974 193.432 144.742 193.432 144.506V139.231C193.436 136.714 192.931 134.221 191.947 131.904C190.962 129.586 189.519 127.492 187.705 125.747C185.89 124.002 183.741 122.642 181.387 121.749C179.033 120.856 176.522 120.449 174.007 120.551C176.563 120.051 179.163 119.813 181.767 119.841H182.385C184.957 119.868 187.449 120.733 189.485 122.305C192.737 124.811 196.791 129.852 196.791 139.231Z" fill="#2C3A5D"/>
<path opacity="0.5" d="M196.791 139.231V144.414C196.8 144.841 196.651 145.257 196.374 145.582C196.096 145.906 195.709 146.118 195.285 146.175C195.052 146.2 194.815 146.175 194.591 146.103C194.368 146.03 194.162 145.911 193.987 145.754C193.812 145.597 193.672 145.404 193.577 145.189C193.481 144.974 193.432 144.742 193.432 144.506V139.231C193.436 136.714 192.931 134.221 191.947 131.904C190.962 129.586 189.519 127.492 187.705 125.747C185.89 124.002 183.741 122.642 181.387 121.749C179.033 120.856 176.522 120.449 174.007 120.551C176.563 120.051 179.163 119.813 181.767 119.841H182.385C184.957 119.868 187.449 120.733 189.485 122.305C192.737 124.811 196.791 129.852 196.791 139.231Z" fill="black"/>
<path d="M188.81 236.906C188.81 236.906 185.374 246.371 197.657 250.631C197.657 250.631 201.668 244.738 197.657 239.917C193.645 235.096 188.81 236.906 188.81 236.906Z" fill="#2C3A5D"/>
<path opacity="0.7" d="M188.81 236.906C188.81 236.906 185.374 246.371 197.657 250.631C197.657 250.631 201.668 244.738 197.657 239.917C193.645 235.096 188.81 236.906 188.81 236.906Z" fill="black"/>
<path d="M193.12 237.339C193.12 237.339 181.121 241.734 181.185 243.438C181.249 245.142 186.283 243.977 186.283 243.977L184.444 245.184C182.507 246.448 181.007 248.278 180.148 250.424C179.961 250.898 179.954 251.423 180.13 251.901C180.305 252.379 180.651 252.776 181.1 253.016L185.658 255.43C185.915 255.566 186.197 255.65 186.488 255.675C186.778 255.701 187.07 255.668 187.348 255.579C187.625 255.489 187.882 255.345 188.102 255.155C188.323 254.965 188.504 254.732 188.633 254.471C188.887 253.969 189.238 253.522 189.666 253.157C190.093 252.791 190.589 252.514 191.125 252.341C193.603 251.518 198.225 249.146 200.078 242.657L193.12 237.339Z" fill="#945959"/>
<path d="M196.72 176.371C196.72 176.371 190.33 179.921 193.724 190.699C197.117 201.477 203.486 218.197 203.486 218.197L188.81 236.906C190.378 237.095 191.889 237.612 193.243 238.425C194.597 239.237 195.765 240.326 196.67 241.62C197.537 242.936 198.079 244.439 198.25 246.006C198.422 247.573 198.218 249.157 197.657 250.63L215.875 227.2C217.56 225.035 218.679 222.484 219.13 219.778C219.581 217.071 219.351 214.295 218.46 211.701L210.65 188.895C209.695 186.11 208.109 183.583 206.015 181.512C203.921 179.442 201.376 177.884 198.58 176.96L196.72 176.371Z" fill="#2C3A5D"/>
<path d="M88.8565 112.705L60.6198 96.3748C60.2949 96.1496 59.9189 96.0089 59.5259 95.9655C59.1329 95.9221 58.7354 95.9774 58.3691 96.1263C58.2919 96.162 58.2182 96.2047 58.149 96.2541L52.0075 99.8538H52.0501C51.2762 100.294 50.7863 101.316 50.7863 102.779V134.189C50.7863 136.845 52.398 139.933 54.3931 141.084L82.6298 157.414C82.9881 157.673 83.4146 157.821 83.8563 157.84C84.2981 157.859 84.7357 157.748 85.1148 157.52C85.0956 157.528 85.0786 157.54 85.0651 157.556L91.164 154.006C91.9592 153.58 92.4633 152.543 92.4633 151.059V119.599C92.4633 116.944 90.88 113.855 88.8565 112.705Z" fill="#2C3A5D"/>
<path d="M91.4551 115.68C90.8838 114.465 89.9836 113.434 88.8565 112.705L60.6198 96.3748C60.2949 96.1496 59.9189 96.0089 59.5259 95.9655C59.1329 95.9221 58.7354 95.9774 58.3691 96.1263C58.2919 96.162 58.2182 96.2047 58.149 96.2541L52.0075 99.8538C52.3832 99.6618 52.8044 99.5768 53.2252 99.6081C53.6459 99.6394 54.05 99.7858 54.3931 100.031L82.6298 116.361C83.7953 117.123 84.719 118.202 85.2923 119.471L91.4551 115.68Z" fill="#2C3A5D"/>
<path d="M86.2366 154.652C86.2366 156.072 85.7822 157.058 85.0651 157.492L91.164 153.942C91.9592 153.516 92.4633 152.479 92.4633 150.995V119.599C92.4333 118.232 92.0883 116.891 91.4551 115.68L85.2923 119.471C85.884 120.647 86.2066 121.94 86.2366 123.255V154.652Z" fill="#2C3A5D"/>
<path opacity="0.3" d="M91.4551 115.68C90.8838 114.465 89.9836 113.434 88.8565 112.705L60.6198 96.3748C60.2949 96.1496 59.9189 96.0089 59.5259 95.9655C59.1329 95.9221 58.7354 95.9774 58.3691 96.1263C58.2919 96.162 58.2182 96.2047 58.149 96.2541L52.0075 99.8538C52.3832 99.6618 52.8044 99.5768 53.2252 99.6081C53.6459 99.6394 54.05 99.7858 54.3931 100.031L82.6298 116.361C83.7953 117.123 84.719 118.202 85.2923 119.471L91.4551 115.68Z" fill="black"/>
<path opacity="0.6" d="M86.2366 154.652C86.2366 156.072 85.7822 157.058 85.0651 157.492L91.164 153.942C91.9592 153.516 92.4633 152.479 92.4633 150.995V119.599C92.4333 118.232 92.0883 116.891 91.4551 115.68L85.2923 119.471C85.884 120.647 86.2066 121.94 86.2366 123.255V154.652Z" fill="black"/>
<path d="M77.958 132.251C77.958 136.32 76.3463 137.704 73.9323 136.306C73.2664 135.926 72.6841 135.416 72.2204 134.806C71.7567 134.196 71.4213 133.499 71.2343 132.756C70.5243 133.629 69.4238 133.686 67.876 132.791C65.3342 131.321 63.332 127.821 63.332 124.42C63.332 121.019 65.3129 119.848 67.876 121.325C69.1766 122.091 70.2272 123.218 70.9006 124.569V123.227L73.5773 124.775V132.131C73.5374 132.518 73.6044 132.908 73.7709 133.26C73.9373 133.612 74.197 133.911 74.5216 134.126C75.4233 134.651 75.9771 133.764 75.9771 131.13C75.9771 126.522 73.0235 121.637 68.657 119.116C64.2905 116.596 61.344 118.35 61.344 123.092C61.4012 125.609 62.0947 128.07 63.3598 130.247C64.6248 132.423 66.4203 134.244 68.5789 135.539C69.7509 136.261 71.0819 136.685 72.4555 136.774L73.0874 139.224C71.4879 139.095 69.9423 138.586 68.5789 137.74C62.8989 134.452 59.143 127.835 59.143 121.843C59.143 115.85 62.9344 113.678 68.657 116.986C74.1879 120.174 77.958 126.557 77.958 132.251ZM70.9432 128.836C70.957 127.936 70.7373 127.048 70.3056 126.257C69.8738 125.467 69.2447 124.802 68.4795 124.328C67.0595 123.497 66.0442 124.079 66.0442 126.011C66.0259 126.912 66.2405 127.804 66.667 128.598C67.0936 129.393 67.7179 130.064 68.4795 130.547C69.8995 131.35 70.9432 130.831 70.9432 128.836Z" fill="#2C3A5D"/>
<g opacity="0.9">
<path d="M77.958 132.251C77.958 136.32 76.3463 137.704 73.9323 136.306C73.2664 135.926 72.6841 135.416 72.2204 134.806C71.7567 134.196 71.4213 133.499 71.2343 132.756C70.5243 133.629 69.4238 133.686 67.876 132.791C65.3342 131.321 63.332 127.821 63.332 124.42C63.332 121.019 65.3129 119.848 67.876 121.325C69.1766 122.091 70.2272 123.218 70.9006 124.569V123.227L73.5773 124.775V132.131C73.5374 132.518 73.6044 132.908 73.7709 133.26C73.9373 133.612 74.197 133.911 74.5216 134.126C75.4233 134.651 75.9771 133.764 75.9771 131.13C75.9771 126.522 73.0235 121.637 68.657 119.116C64.2905 116.596 61.344 118.35 61.344 123.092C61.4012 125.609 62.0947 128.07 63.3598 130.247C64.6248 132.423 66.4203 134.244 68.5789 135.539C69.7509 136.261 71.0819 136.685 72.4555 136.774L73.0874 139.224C71.4879 139.095 69.9423 138.586 68.5789 137.74C62.8989 134.452 59.143 127.835 59.143 121.843C59.143 115.85 62.9344 113.678 68.657 116.986C74.1879 120.174 77.958 126.557 77.958 132.251ZM70.9432 128.836C70.957 127.936 70.7373 127.048 70.3056 126.257C69.8738 125.467 69.2447 124.802 68.4795 124.328C67.0595 123.497 66.0442 124.079 66.0442 126.011C66.0259 126.912 66.2405 127.804 66.667 128.598C67.0936 129.393 67.7179 130.064 68.4795 130.547C69.8995 131.35 70.9432 130.831 70.9432 128.836Z" fill="white"/>
</g>
<path d="M88.8565 168.639L60.6198 152.309C60.2953 152.082 59.9189 151.941 59.5254 151.899C59.132 151.857 58.7342 151.915 58.3691 152.067C58.2919 152.103 58.2182 152.146 58.149 152.195L52.0075 155.795H52.0501C51.2762 156.235 50.7863 157.257 50.7863 158.713V190.109C50.7863 192.772 52.398 195.853 54.3931 197.003L82.6298 213.333C82.9873 213.594 83.414 213.743 83.8562 213.762C84.2984 213.781 84.7363 213.669 85.1148 213.44L85.0651 213.482L91.164 209.897C91.9592 209.478 92.4633 208.477 92.4633 206.95V175.526C92.4633 172.87 90.88 169.789 88.8565 168.639Z" fill="#2C3A5D"/>
<path d="M91.4551 171.614C90.8858 170.397 89.9851 169.366 88.8565 168.639L60.6198 152.309C60.2953 152.082 59.9189 151.941 59.5254 151.899C59.132 151.857 58.7342 151.915 58.3691 152.067C58.2919 152.103 58.2182 152.146 58.149 152.195L52.0075 155.795C52.3823 155.601 52.8034 155.514 53.2243 155.544C53.6452 155.574 54.0496 155.72 54.3931 155.965L82.6298 172.295C83.7971 173.058 84.7211 174.14 85.2923 175.412L91.4551 171.614Z" fill="#2C3A5D"/>
<path d="M86.2366 210.579C86.2366 211.999 85.7822 212.986 85.0651 213.455L91.164 209.869C91.9592 209.45 92.4633 208.449 92.4633 206.923V175.526C92.4332 174.162 92.0882 172.823 91.4551 171.614L85.2923 175.406C85.8839 176.579 86.2065 177.869 86.2366 179.183V210.579Z" fill="#2C3A5D"/>
<path opacity="0.3" d="M91.4551 171.614C90.8858 170.397 89.9851 169.366 88.8565 168.639L60.6198 152.309C60.2953 152.082 59.9189 151.941 59.5254 151.899C59.132 151.857 58.7342 151.915 58.3691 152.067C58.2919 152.103 58.2182 152.146 58.149 152.195L52.0075 155.795C52.3823 155.601 52.8034 155.514 53.2243 155.544C53.6452 155.574 54.0496 155.72 54.3931 155.965L82.6298 172.295C83.7971 173.058 84.7211 174.14 85.2923 175.412L91.4551 171.614Z" fill="black"/>
<path opacity="0.6" d="M86.2366 210.579C86.2366 211.999 85.7822 212.986 85.0651 213.455L91.164 209.869C91.9592 209.45 92.4633 208.449 92.4633 206.923V175.526C92.4332 174.162 92.0882 172.823 91.4551 171.614L85.2923 175.406C85.8839 176.579 86.2065 177.869 86.2366 179.183V210.579Z" fill="black"/>
<path d="M65.3555 182.676L58.5466 171.614V186.602L65.3555 182.676Z" fill="#2C3A5D"/>
<path d="M71.6816 185.863L78.4763 197.628V182.661L71.6816 185.863Z" fill="#2C3A5D"/>
<path d="M59.5761 171.109L66.5696 182.469C66.5992 182.494 66.6255 182.523 66.6477 182.555C66.6539 182.583 66.6539 182.612 66.6477 182.64L68.728 186.019L70.4888 185.189C70.5162 185.159 70.5472 185.133 70.5811 185.111C70.6505 185.07 70.7282 185.046 70.8083 185.04L77.9083 181.71L59.5761 171.109Z" fill="#2C3A5D"/>
<path d="M70.6521 186.347L68.7493 187.241C68.676 187.275 68.5959 187.292 68.515 187.291C68.417 187.292 68.3204 187.268 68.2345 187.221C68.1487 187.173 68.0765 187.105 68.0251 187.021L65.9448 183.642L59.1146 187.589L77.4965 198.197L70.6521 186.347Z" fill="#2C3A5D"/>
<g opacity="0.9">
<path d="M65.3555 182.675L58.5466 171.613V186.601L65.3555 182.675Z" fill="white"/>
<path d="M71.6816 185.863L78.4763 197.628V182.661L71.6816 185.863Z" fill="white"/>
<path d="M59.5761 171.109L66.5696 182.469C66.5992 182.494 66.6255 182.523 66.6477 182.555C66.6539 182.583 66.6539 182.612 66.6477 182.64L68.728 186.019L70.4888 185.189C70.5162 185.159 70.5472 185.133 70.5811 185.111C70.6505 185.07 70.7282 185.046 70.8083 185.04L77.9083 181.71L59.5761 171.109Z" fill="white"/>
<path d="M70.6521 186.346L68.7493 187.24C68.676 187.274 68.5959 187.291 68.515 187.29C68.417 187.291 68.3204 187.267 68.2345 187.22C68.1487 187.172 68.0765 187.104 68.0251 187.02L65.9448 183.641L59.1146 187.588L77.4965 198.196L70.6521 186.346Z" fill="white"/>
</g>
<path d="M88.8565 56.7998L60.6198 40.4698C60.2953 40.2433 59.9189 40.1025 59.5254 40.0603C59.132 40.0181 58.7342 40.0759 58.3691 40.2284C58.2919 40.2641 58.2182 40.3068 58.149 40.3562L52.0075 43.9559H52.0501C51.2762 44.389 50.7863 45.4185 50.7863 46.874V78.2702C50.7863 80.9256 52.398 84.0141 54.3931 85.1643L82.6298 101.494C82.9873 101.755 83.414 101.904 83.8562 101.923C84.2984 101.942 84.7363 101.83 85.1148 101.601L85.0651 101.636L91.164 98.0863C91.9592 97.6674 92.4633 96.6663 92.4633 95.1398V63.6655C92.4633 61.0101 90.88 57.9216 88.8565 56.7998Z" fill="#2C3A5D"/>
<path d="M91.4551 59.7534C90.8859 58.5352 89.9854 57.5018 88.8565 56.7714L60.6198 40.4698C60.2953 40.2433 59.9189 40.1025 59.5254 40.0603C59.132 40.0181 58.7342 40.0759 58.3691 40.2284C58.2919 40.2641 58.2182 40.3068 58.149 40.3562L52.0075 43.9559C52.3823 43.7621 52.8034 43.6754 53.2243 43.7055C53.6452 43.7356 54.0496 43.8812 54.3931 44.1263L82.6298 60.4563C83.7971 61.2193 84.7211 62.301 85.2923 63.5732L91.4551 59.7534Z" fill="#2C3A5D"/>
<path d="M86.2366 98.6893C86.2366 100.109 85.7822 101.096 85.0651 101.529L91.164 97.9793C91.9592 97.5604 92.4633 96.5593 92.4633 95.0328V63.665C92.4332 62.3007 92.0882 60.9618 91.4551 59.7529L85.2923 63.5443C85.8839 64.7176 86.2065 66.0079 86.2366 67.3215V98.6893Z" fill="#2C3A5D"/>
<path opacity="0.3" d="M91.4551 59.7534C90.8859 58.5352 89.9854 57.5018 88.8565 56.7714L60.6198 40.4698C60.2953 40.2433 59.9189 40.1025 59.5254 40.0603C59.132 40.0181 58.7342 40.0759 58.3691 40.2284C58.2919 40.2641 58.2182 40.3068 58.149 40.3562L52.0075 43.9559C52.3823 43.7621 52.8034 43.6754 53.2243 43.7055C53.6452 43.7356 54.0496 43.8812 54.3931 44.1263L82.6298 60.4563C83.7971 61.2193 84.7211 62.301 85.2923 63.5732L91.4551 59.7534Z" fill="black"/>
<path opacity="0.6" d="M86.2366 98.6893C86.2366 100.109 85.7822 101.096 85.0651 101.529L91.164 97.9793C91.9592 97.5604 92.4633 96.5593 92.4633 95.0328V63.665C92.4332 62.3007 92.0882 60.9618 91.4551 59.7529L85.2923 63.5443C85.8839 64.7176 86.2065 66.0079 86.2366 67.3215V98.6893Z" fill="black"/>
<path d="M76.9995 85.1995C75.9132 83.4103 74.8198 81.6495 73.7335 79.8461C73.5612 79.5045 73.3203 79.2021 73.0259 78.9578C72.7315 78.7135 72.3899 78.5325 72.0224 78.4261C71.497 78.3196 70.9716 78.1989 70.432 78.0427C70.2398 77.9626 70.0782 77.8233 69.9705 77.6451C68.1929 74.6029 66.7798 71.3619 65.7602 67.9891C65.7385 67.917 65.7324 67.8411 65.7421 67.7665C65.7519 67.6918 65.7774 67.6201 65.817 67.556C66.1507 67.2223 66.527 66.917 66.8678 66.6188C67.2086 66.3206 67.3861 65.6319 67.1376 64.7373C66.6122 62.8416 66.1081 60.9459 65.5827 59.0573C65.481 58.5207 65.2398 58.0203 64.8834 57.6065C64.5269 57.1927 64.0678 56.8801 63.5521 56.7001C62.4071 56.3818 61.1916 56.4265 60.0731 56.8279C59.64 56.9912 59.4128 57.3817 59.4057 58.0562C59.5903 59.3555 59.711 60.6406 59.9595 61.9612C61.7108 71.4847 65.9235 80.2414 72.5975 88.2312C72.7717 88.4962 73.0058 88.7165 73.2808 88.8743C73.5559 89.0322 73.8641 89.1232 74.1808 89.14C75.2857 89.1138 76.3473 88.7047 77.1841 87.9827C77.816 87.4147 77.7521 86.4065 76.9995 85.1995Z" fill="#2C3A5D"/>
<path d="M76.9143 75.5223C76.7658 73.4801 76.2029 71.4895 75.26 69.6719C74.556 68.252 73.6601 66.9356 72.5975 65.7598C72.3206 65.4474 72.0863 65.348 71.9443 65.5823C71.8023 65.8166 71.9443 66.1503 72.2141 66.4556L72.491 66.7751C74.4534 69.0404 75.6902 71.8429 76.041 74.8194C76.0375 75.0365 76.059 75.2533 76.1049 75.4655C76.1941 75.7097 76.3373 75.9305 76.5238 76.1116C76.6729 76.2181 76.8433 76.1116 76.964 76.1116C76.9214 75.8205 76.9285 75.6714 76.9143 75.5223Z" fill="#2C3A5D"/>
<path d="M70.4817 69.6938C71.3733 70.6745 71.9151 71.9228 72.0224 73.2438C72.0692 73.4447 72.1432 73.6381 72.2425 73.8189C72.6756 74.1739 72.8886 74.0532 72.8886 73.6059C72.7368 71.9121 72.0363 70.3142 70.8935 69.0548C70.6237 68.7779 70.4036 68.6927 70.2758 68.927C70.2298 69.0608 70.2249 69.2052 70.2616 69.3419C70.2982 69.4785 70.3749 69.601 70.4817 69.6938Z" fill="#2C3A5D"/>
<g opacity="0.9">
<path d="M76.9995 85.1995C75.9132 83.4103 74.8198 81.6495 73.7335 79.8461C73.5612 79.5045 73.3203 79.2021 73.0259 78.9578C72.7315 78.7135 72.3899 78.5325 72.0224 78.4261C71.497 78.3196 70.9716 78.1989 70.432 78.0427C70.2398 77.9626 70.0782 77.8233 69.9705 77.6451C68.1929 74.6029 66.7798 71.3619 65.7602 67.9891C65.7385 67.917 65.7324 67.8411 65.7421 67.7665C65.7519 67.6918 65.7774 67.6201 65.817 67.556C66.1507 67.2223 66.527 66.917 66.8678 66.6188C67.2086 66.3206 67.3861 65.6319 67.1376 64.7373C66.6122 62.8416 66.1081 60.9459 65.5827 59.0573C65.481 58.5207 65.2398 58.0203 64.8834 57.6065C64.5269 57.1927 64.0678 56.8801 63.5521 56.7001C62.4071 56.3818 61.1916 56.4265 60.0731 56.8279C59.64 56.9912 59.4128 57.3817 59.4057 58.0562C59.5903 59.3555 59.711 60.6406 59.9595 61.9612C61.7108 71.4847 65.9235 80.2414 72.5975 88.2312C72.7717 88.4962 73.0058 88.7165 73.2808 88.8743C73.5559 89.0322 73.8641 89.1232 74.1808 89.14C75.2857 89.1138 76.3473 88.7047 77.1841 87.9827C77.816 87.4147 77.7521 86.4065 76.9995 85.1995Z" fill="white"/>
<path d="M76.9143 75.5223C76.7658 73.4801 76.2029 71.4895 75.26 69.6719C74.556 68.252 73.6601 66.9356 72.5975 65.7598C72.3206 65.4474 72.0863 65.348 71.9443 65.5823C71.8023 65.8166 71.9443 66.1503 72.2141 66.4556L72.491 66.7751C74.4534 69.0404 75.6902 71.8429 76.041 74.8194C76.0375 75.0365 76.059 75.2533 76.1049 75.4655C76.1941 75.7097 76.3373 75.9305 76.5238 76.1116C76.6729 76.2181 76.8433 76.1116 76.964 76.1116C76.9214 75.8205 76.9285 75.6714 76.9143 75.5223Z" fill="white"/>
<path d="M70.4817 69.6928C71.3733 70.6735 71.9151 71.9218 72.0224 73.2428C72.0692 73.4437 72.1432 73.6372 72.2425 73.8179C72.6756 74.1729 72.8886 74.0522 72.8886 73.6049C72.7368 71.9111 72.0363 70.3132 70.8935 69.0538C70.6237 68.7769 70.4036 68.6917 70.2758 68.926C70.2298 69.0598 70.2249 69.2043 70.2616 69.3409C70.2982 69.4775 70.3749 69.6001 70.4817 69.6928Z" fill="white"/>
</g>
<path d="M233.732 37.971L240.385 41.7553V39.3981C240.385 39.2348 240.385 39.0644 240.385 38.9011C240.385 38.7378 240.385 38.5816 240.385 38.4254V38.3402C240.626 35.2233 242.99 34.0234 245.873 35.6919C247.178 36.4946 248.296 37.567 249.153 38.8372C249.799 34.5772 253.257 33.072 257.439 35.4789C262.082 38.1627 265.845 44.7089 265.845 50.0481V55.0891C265.839 55.4923 265.938 55.8902 266.134 56.2429C266.329 56.5955 266.614 56.8906 266.96 57.0984L270.879 59.3917C271.725 59.8932 272.426 60.6057 272.914 61.4594C273.402 62.3132 273.66 63.279 273.662 64.2623C273.663 64.6702 273.555 65.071 273.351 65.4243C273.147 65.7775 272.854 66.0708 272.5 66.2745C272.147 66.4782 271.746 66.5852 271.338 66.5847C270.93 66.5842 270.529 66.4762 270.176 66.2716L233.831 45.2627C232.867 44.7027 232.066 43.9002 231.508 42.9349C230.95 41.9696 230.655 40.8751 230.651 39.7602C230.65 39.3993 230.745 39.0446 230.925 38.7318C231.105 38.4189 231.364 38.1588 231.676 37.9776C231.988 37.7964 232.342 37.7004 232.703 37.6992C233.064 37.6981 233.419 37.7918 233.732 37.971Z" fill="#E6E6E6"/>
<path d="M284.447 36.9837L289.282 39.7598V38.0274C289.282 37.9067 289.282 37.786 289.282 37.6653C289.282 37.5446 289.282 37.431 289.282 37.3174V37.2748C289.46 35.0099 291.178 34.1366 293.273 35.3507C294.221 35.9319 295.034 36.7089 295.658 37.6298C296.134 34.5484 298.647 33.4337 301.686 35.1874C305.066 37.1399 307.799 41.8827 307.799 45.7806V49.4513C307.802 49.7391 307.879 50.0212 308.023 50.2702C308.168 50.5191 308.374 50.7262 308.623 50.8713L311.463 52.5398C312.081 52.9032 312.593 53.4222 312.948 54.0451C313.303 54.6679 313.488 55.3729 313.486 56.0898C313.486 56.3835 313.409 56.6719 313.263 56.9267C313.117 57.1816 312.907 57.394 312.654 57.543C312.401 57.6921 312.114 57.7727 311.82 57.7768C311.527 57.781 311.237 57.7085 310.98 57.5666L284.518 42.2874C283.817 41.8818 283.235 41.299 282.83 40.5974C282.425 39.8959 282.211 39.1002 282.211 38.2901C282.21 38.0279 282.279 37.7702 282.409 37.5427C282.539 37.3152 282.727 37.1259 282.953 36.9936C283.18 36.8614 283.437 36.7909 283.699 36.7891C283.961 36.7874 284.219 36.8545 284.447 36.9837Z" fill="#E6E6E6"/>
</svg>
