<svg width="15" height="28" viewBox="0 0 15 28" fill="none" xmlns="http://www.w3.org/2000/svg">
<path d="M0.468752 14.529H3.65449V26.8394C3.65449 27.0824 3.8643 27.2794 4.12324 27.2794H9.52476C9.7837 27.2794 9.99352 27.0824 9.99352 26.8394V14.587H13.6558C13.8939 14.587 14.0943 14.4193 14.1214 14.1972L14.6777 9.66517C14.6929 9.54048 14.6509 9.41561 14.562 9.32207C14.473 9.22844 14.3457 9.17485 14.2121 9.17485H9.9937V6.33392C9.9937 5.47752 10.485 5.04325 11.454 5.04325C11.5921 5.04325 14.2121 5.04325 14.2121 5.04325C14.471 5.04325 14.6809 4.84623 14.6809 4.60326V0.443246C14.6809 0.200195 14.471 0.00325593 14.2121 0.00325593H10.411C10.3842 0.00202395 10.3246 0 10.2369 0C9.57736 0 7.28488 0.121525 5.47399 1.68525C3.46755 3.41811 3.74646 5.49292 3.81311 5.85266V9.17476H0.468752C0.209813 9.17476 0 9.3717 0 9.61475V14.0889C0 14.332 0.209813 14.529 0.468752 14.529Z" fill="#FCFCFC"/>
</svg>
