<svg width="92" height="80" viewBox="0 0 92 80" fill="none" xmlns="http://www.w3.org/2000/svg">
<g id="blood-donation-svgrepo-com 1" clip-path="url(#clip0_464_1747)">
<g id="Group">
<g id="Group_2">
<path id="Vector" d="M76.178 52.164C76.178 66.6573 62.6665 78.4065 45.9991 78.4065C29.3317 78.4065 15.8203 66.6573 15.8203 52.164C15.8203 37.6706 45.9991 1.59375 45.9991 1.59375C45.9991 1.59375 76.178 37.6707 76.178 52.164Z" fill="white"/>
<path id="Vector_2" d="M45.9997 80C28.3485 80 13.9883 67.5128 13.9883 52.164C13.9883 37.323 43.2712 2.14645 44.5176 0.656255C44.8625 0.243984 45.4134 0 45.9997 0C46.586 0 47.1369 0.243984 47.4818 0.656255C48.7284 2.14645 78.0111 37.3229 78.0111 52.164C78.0111 67.5128 63.6509 80 45.9997 80ZM45.9997 4.33944C43.4356 7.50247 37.9222 14.4521 32.4649 22.2878C22.7752 36.2006 17.6534 46.5316 17.6534 52.164C17.6536 65.7554 30.3696 76.8128 45.9997 76.8128C61.6298 76.8128 74.3458 65.7554 74.3458 52.164C74.3458 46.5291 69.2196 36.1917 59.5215 22.2695C54.0662 14.4378 48.5612 7.49912 45.9997 4.33944Z" fill="black"/>
</g>
<g id="Group_3">
<path id="Vector_3" d="M45.2389 73.5838C44.2267 73.5838 43.4062 72.8703 43.4062 71.9902C43.4062 71.11 44.2267 70.3966 45.2389 70.3966C52.7061 70.3966 59.6351 67.1631 63.7736 61.747C64.3339 61.0139 65.4714 60.8146 66.3142 61.3016C67.1573 61.7887 67.3865 62.7779 66.8265 63.5108C62.0067 69.8182 53.9366 73.5838 45.2389 73.5838Z" fill="black"/>
</g>
<g id="Group_4">
<path id="Vector_4" d="M68.696 57.3699C68.5599 57.3699 68.4215 57.3567 68.2831 57.3289C67.2968 57.1315 66.6814 56.276 66.9085 55.4184C67.2845 53.9984 67.4751 52.5321 67.4751 51.0604C67.4751 50.1803 68.2956 49.4668 69.3078 49.4668C70.32 49.4668 71.1404 50.1803 71.1404 51.0604C71.1404 52.7726 70.9183 54.4794 70.4803 56.1336C70.2851 56.8709 69.5306 57.3699 68.696 57.3699Z" fill="black"/>
</g>
<g id="Group_5">
<path id="Vector_5" d="M62.2175 45.3396H52.2295V36.6543H39.7673V45.3396H29.7793V56.1762H39.7673V64.8615H52.2295V56.1762H62.2175V45.3396Z" fill="url(#paint0_linear_464_1747)"/>
<path id="Vector_6" d="M52.2301 66.455H39.768C38.7558 66.455 37.9353 65.7415 37.9353 64.8613V57.7697H29.7799C28.7678 57.7697 27.9473 57.0562 27.9473 56.1761V45.3394C27.9473 44.4593 28.7678 43.7458 29.7799 43.7458H37.9353V36.6542C37.9353 35.774 38.7558 35.0605 39.768 35.0605H52.2301C53.2423 35.0605 54.0628 35.774 54.0628 36.6542V43.7458H62.2182C63.2304 43.7458 64.0509 44.4593 64.0509 45.3394V56.1761C64.0509 57.0562 63.2304 57.7697 62.2182 57.7697H54.0628V64.8613C54.0628 65.7415 53.2423 66.455 52.2301 66.455ZM41.6007 63.2677H50.3975V56.1761C50.3975 55.2959 51.218 54.5825 52.2301 54.5825H60.3855V46.9331H52.2301C51.218 46.9331 50.3975 46.2196 50.3975 45.3394V38.2478H41.6007V45.3394C41.6007 46.2196 40.7802 46.9331 39.768 46.9331H31.6126V54.5825H39.768C40.7802 54.5825 41.6007 55.2959 41.6007 56.1761V63.2677Z" fill="black"/>
</g>
</g>
</g>
<defs>
<linearGradient id="paint0_linear_464_1747" x1="45.9984" y1="36.6543" x2="45.9984" y2="64.8615" gradientUnits="userSpaceOnUse">
<stop stop-color="#D62828"/>
<stop offset="0.305669" stop-color="#BC2323" stop-opacity="0.9492"/>
<stop offset="0.539024" stop-color="#A51F1F" stop-opacity="0.9032"/>
<stop offset="0.801918" stop-color="#8A1A1A" stop-opacity="0.8502"/>
<stop offset="1" stop-color="#701515" stop-opacity="0.8"/>
</linearGradient>
<clipPath id="clip0_464_1747">
<rect width="92" height="80" fill="white"/>
</clipPath>
</defs>
</svg>
